<?xml version="1.0" encoding="UTF-8" standalone="no"?>
<svg xmlns="http://www.w3.org/2000/svg" xmlns:xlink="http://www.w3.org/1999/xlink" xml:space="preserve" width="160" height="150" version="1.0" viewBox="0 0 313 327">
  <g fill="#fff">
    <path d="M195.324951 245.316395c25.21-64.83 50.548-129.616 75.587-194.511 1.103 5.518.814 11.239 2.035 16.703 3.268 4.821 5.85 10.532 10.81 13.875-22.938 59.783-45.437 119.749-68.204 179.597-2.046 5.143-3.686 10.457-6.15 15.417-7.575-3.364-13.446-9.385-19.585-14.785-2.089-4.939-2.668-10.232-2.025-15.546 2.518-.15 5.036-.386 7.532-.75z"/>
    <path d="M28.081951 238.374395c12.771 1.018 25.584 1.092 38.355 2.11 9.696-.129 19.317 1.296 29.002 1.2 19.285 1.328 38.613 1.725 57.898 3.075 11.228.011 22.393 1.414 33.621 1.339-1.296 5.464-.075 10.906 1.832 16.049 5.432 4.864 10.746 9.953 17.014 13.789-45.309-3.493-90.683-6.149-136.002-9.375-4.564-.515-9.161-.085-13.714-.525-7.478-3.429-14.078-8.539-20.024-14.174-3.151-4.178-6.033-8.614-7.982-13.488z"/>
  </g>
  <path fill="#2B2621" d="M216.38795 41.313395c19.768-1.607 39.449-4.403 59.248-5.486-1.093 6.386-4.65 12.685-2.818 19.253.922 5.068.439 10.832 3.804 15.106 1.832 2.882 3.76 5.689 5.625 8.55 2.796.021 5.604.01 8.421-.043-25.499 68.161005-50.473 136.547995-76.058 204.666995-39.031-2.625-78.05-5.82799-117.091999-8.54999-11.368-1.103-22.821-1.307-34.124-3.053-5.55-.579-11.432-1.168-16.103-4.542-7.114-4.80001-14.431-9.943-19.103001-17.314-2.946-4.21101-6.578-8.70001-5.731-14.20701 24.374001-41.248 48.352001-82.74399 72.576001-124.088 12.298999-21.191995 24.801999-42.265995 36.983999-63.521995 3.761 1.575 7.757.803 11.678.557 24.213-2.539 48.47-4.767 72.693-7.328zm-21.063 204.002995c-2.496.36401-5.014.6-7.532.75-.643 5.314-.064 10.606 2.025 15.546 6.139 5.40001 12.01 11.421 19.585 14.78501 2.464-4.96 4.104-10.274 6.15-15.41701 22.767-59.84799 45.266-119.813 68.204-179.596995-4.96-3.343-7.542-9.054-10.81-13.875-1.221-5.463-.932-11.185-2.035-16.703-25.039 64.895005-50.377 129.680995-75.587 194.510995zm-63.319-188.499995c-1.532.439-2.732 2.636-1.896 4.082 1.756.525 3.696-3.268 1.896-4.082zm-4.264 7.489c-1.532.429-2.721 2.646-1.907 4.093 1.757.524 3.696-3.258 1.907-4.093zm-4.297 7.543c-1.5.45-2.721 2.614-1.885 4.049 1.778.568 3.729-3.278 1.885-4.049zm-5.378 9.61c-1.521.439-2.721 2.625-1.907 4.072 1.757.545 3.739-3.279 1.907-4.072zm-4.264 7.542c-1.521.439-2.71 2.614-1.917 4.061 1.756.578 3.749-3.268 1.917-4.061zm-4.296 7.436c-1.5.461-2.689 2.646-1.864 4.071005 1.789.568 3.696-3.289005 1.864-4.071005zm-4.254 7.542005c-1.533.40799-2.732 2.615-1.907 4.04999 1.757.55801 3.707-3.23499 1.907-4.04999zm-5.366999 9.61099c-1.522.439-2.711 2.59201-1.918 4.04901 1.757.622 3.727999-3.24601 1.918-4.04901zm-4.329 7.53101c-1.521.429-2.71 2.625-1.864 4.061 1.757.536 3.707-3.30001 1.864-4.061zm-4.285 7.5c-1.511.461-2.689 2.64599-1.854 4.07099 1.768.53701 3.718-3.31 1.854-4.07099zm-4.232 7.51099c-1.521.439-2.721 2.625-1.875 4.04901 1.768.56899 3.718-3.28801 1.875-4.04901zm-5.4 9.62101c-1.521.43899-2.764 2.614-1.896 4.049 1.757.558 3.717-3.27801 1.896-4.049zm-4.286 7.489c-1.521.40699-2.743 2.614-1.907 4.04999 1.757.535 3.729-3.23599 1.907-4.04999zm-4.264 7.52099c-1.532.439-2.689 2.636-1.875 4.07201 1.758.578 3.686-3.279 1.875-4.07201zm-4.253 7.499c-1.521.418-2.7 2.593-1.875 4.018 1.768.611 3.728-3.257 1.875-4.018zm-5.443 9.643c-1.489.47201-2.71 2.64601-1.832 4.072 1.768.535 3.696-3.33199 1.832-4.072zm-4.221 7.47801c-1.521.43899-2.721 2.63599-1.854 4.071 1.757.54699 3.675-3.309 1.854-4.071zm-4.307 7.5c-1.511.45099-2.722 2.63599-1.886 4.072 1.768.54599 3.707-3.279 1.886-4.072zm-4.232 7.51099c-1.532.40701-2.753 2.61401-1.885 4.039 1.756.535 3.685-3.247 1.885-4.039zm-5.432 9.67401c-1.511.429-2.721 2.614-1.875 4.029 1.779.578 3.717-3.25701 1.875-4.029zm-4.275 7.446c-1.511.43899-2.689 2.63599-1.843 4.061 1.768.56799 3.696-3.30001 1.843-4.061zm-4.296 7.543c-1.5.46099-2.678 2.64599-1.843 4.082 1.789.536 3.686-3.321 1.843-4.082zm-8.549001 13.31799c1.95 4.875 4.832001 9.31 7.981001 13.489 5.946 5.63501 12.546 10.74601 20.024 14.17401 4.554.439 9.15.00999 13.714.525 45.318999 3.225 90.692999 5.88199 136.001999 9.375-6.268-3.835-11.582-8.924-17.014-13.78901-1.907-5.14299-3.128-10.585-1.832-16.049-11.228.07501-22.393-1.32899-33.621-1.339-19.285-1.35-38.613-1.74699-57.897999-3.075-9.685.09601-19.306-1.329-29.002-1.2-12.77-1.01899-25.584-1.094-38.354001-2.111z"/>
  <path fill="#2B2621" d="M132.005951 56.816395c1.8.814-.14 4.607-1.896 4.082-.837-1.446.364-3.643 1.896-4.082zm-4.264 7.489c1.79.835-.15 4.618-1.907 4.093-.814-1.447.375-3.664 1.907-4.093zm-4.297 7.543c1.843.771-.107 4.618-1.885 4.049-.836-1.435.385-3.6 1.885-4.049zm-5.378 9.61c1.832.793-.15 4.618-1.907 4.072-.814-1.447.386-3.633 1.907-4.072zm-4.264 7.542c1.832.793-.161 4.639-1.917 4.061-.794-1.447.396-3.621 1.917-4.061zm-4.296 7.436c1.832.783-.075 4.639-1.864 4.071-.826-1.425.363-3.61 1.864-4.071zm-4.254 7.542c1.8.814-.15 4.607-1.907 4.05-.824-1.435.375-3.642 1.907-4.05zm-5.367 9.611c1.811.803-.161 4.671-1.918 4.049-.793-1.457.396-3.61 1.918-4.049zm-4.329 7.531c1.843.761-.107 4.597-1.864 4.061-.846-1.435.343-3.632 1.864-4.061zm-4.285 7.5c1.864.761-.086 4.607-1.854 4.071-.835-1.424.343-3.61 1.854-4.071zm-4.232 7.511c1.843.761-.107 4.618-1.875 4.049-.847-1.425.354-3.61 1.875-4.049zm-5.4 9.621c1.822.771-.139 4.606-1.896 4.049-.868-1.435.375-3.609 1.896-4.049zm-4.286 7.489c1.822.814-.15 4.585-1.907 4.05-.836-1.436.386-3.643 1.907-4.05zm-4.264 7.521c1.811.793-.118 4.65-1.875 4.072-.814-1.436.344-3.633 1.875-4.072zm-4.253 7.499c1.854.761-.107 4.629-1.875 4.018-.825-1.424.353-3.6 1.875-4.018zm-5.443 9.643c1.864.74-.064 4.607-1.832 4.072-.878-1.426.343-3.6 1.832-4.072zm-4.221 7.478c1.821.761-.097 4.618-1.854 4.071-.867-1.435.332-3.631 1.854-4.071zm-4.307 7.5c1.821.793-.118 4.618-1.886 4.072-.835-1.436.376-3.621 1.886-4.072zm-4.232 7.511c1.8.792-.128 4.575-1.885 4.039-.869-1.425.353-3.632 1.885-4.039zm-5.432 9.674c1.842.772-.097 4.607-1.875 4.029-.846-1.415.364-3.6 1.875-4.029zm-4.275 7.446c1.853.761-.075 4.628-1.843 4.061-.846-1.425.333-3.621 1.843-4.061zm-4.296 7.543c1.843.76-.054 4.618-1.843 4.082-.835-1.436.343-3.621 1.843-4.082z"/>
  <g fill="#fff" opacity=".9" transform="translate(-5.956049 32.880395)">
    <defs>
      <path id="a" d="m117.627 153.947 38.712-99.312 56.151.359-33.79 102.688-61.073-3.735z"/>
    </defs>
    <clipPath id="b">
      <use xlink:href="#a" width="313" height="327" overflow="visible"/>
    </clipPath>
    <g clip-path="url(#b)">
      <path d="M151.729 130.532c-1.909-.09-3.846.152-5.715.667-1.869.515-3.673 1.303-5.316 2.305-1.645 1.003-3.13 2.221-4.359 3.597-1.231 1.378-2.208 2.917-2.829 4.557-.624 1.645-.832 3.24-.674 4.716.159 1.481.686 2.843 1.534 4.015.851 1.176 2.024 2.16 3.47 2.88 1.45.722 3.174 1.179 5.119 1.297 1.949.118 3.936-.115 5.857-.637 1.923-.522 3.778-1.334 5.463-2.372 1.684-1.037 3.195-2.298 4.432-3.721 1.235-1.419 2.195-2.997 2.782-4.669.585-1.667.743-3.272.531-4.747-.211-1.469-.79-2.808-1.682-3.948-.888-1.137-2.087-2.078-3.543-2.756-1.45-.677-3.158-1.093-5.07-1.184m30.472-74.988c-2.93-.02-5.905.369-8.83 1.113-2.921.744-5.799 1.844-8.537 3.252-2.74 1.408-5.345 3.127-7.72 5.108-2.381 1.986-4.535 4.238-6.362 6.711l1.377 1.458c1.456-1.066 2.839-1.967 4.189-2.717 1.349-.749 2.666-1.349 3.99-1.812 1.325-.464 2.658-.792 4.04-1 1.383-.208 2.815-.295 4.337-.275 2.693.035 5.099.533 7.145 1.406 2.055.876 3.748 2.131 5.004 3.676 1.262 1.553 2.083 3.4 2.383 5.451.302 2.061.077 4.327-.756 6.705-.781 2.229-1.836 4.221-3.085 6.025-1.253 1.81-2.699 3.428-4.256 4.906-1.561 1.48-3.231 2.819-4.931 4.069-1.702 1.251-3.431 2.412-5.107 3.537-1.36.915-2.676 1.799-3.91 2.684-1.236.886-2.392 1.773-3.431 2.692-1.041.921-1.966 1.875-2.741 2.895-.775 1.021-1.4 2.108-1.838 3.295-.215.584-.392 1.129-.531 1.66-.14.531-.243 1.047-.312 1.572-.069.526-.105 1.06-.11 1.627-.005.567.021 1.167.075 1.824l2.432.103c.832-1.976 1.855-3.608 3.038-4.99 1.18-1.38 2.521-2.513 3.988-3.491 1.467-.977 3.063-1.799 4.755-2.556 1.692-.757 3.48-1.45 5.332-2.166.972-.378 1.977-.767 3.007-1.181 1.03-.414 2.084-.853 3.155-1.328 1.071-.475 2.158-.987 3.252-1.548 1.094-.561 2.195-1.17 3.295-1.841 2.189-1.333 4.281-2.871 6.23-4.56 1.945-1.686 3.747-3.521 5.361-5.45 1.609-1.924 3.03-3.94 4.22-5.996 1.186-2.048 2.141-4.134 2.825-6.205 1.1-3.331 1.283-6.551.697-9.502-.581-2.928-1.92-5.591-3.875-7.836-1.939-2.229-4.486-4.049-7.505-5.315-3.001-1.26-6.472-1.974-10.29-2"/>
      <path d="M142.959 154.566c-1.945-.118-3.668-.575-5.119-1.297-1.446-.72-2.619-1.705-3.47-2.88-.848-1.172-1.375-2.534-1.534-4.015-.158-1.477.051-3.071.674-4.716.621-1.64 1.597-3.178 2.829-4.557 1.229-1.376 2.715-2.594 4.359-3.597 1.643-1.002 3.447-1.79 5.316-2.305 1.869-.515 3.806-.758 5.715-.667 1.912.091 3.62.507 5.071 1.184 1.456.679 2.655 1.62 3.543 2.756.892 1.141 1.47 2.479 1.682 3.948.212 1.474.054 3.079-.531 4.747-.586 1.672-1.547 3.25-2.782 4.669-1.237 1.422-2.749 2.684-4.432 3.721-1.685 1.038-3.54 1.85-5.463 2.372-1.922.523-3.909.756-5.858.637m9.086-24.9c-2.048-.096-4.126.165-6.132.717-2.004.552-3.939 1.397-5.702 2.472-1.764 1.076-3.358 2.383-4.678 3.858-1.323 1.479-2.372 3.13-3.04 4.89-.671 1.767-.897 3.479-.73 5.064.168 1.592.732 3.055 1.641 4.314.912 1.264 2.171 2.323 3.724 3.098 1.558.777 3.409 1.269 5.5 1.397 2.095.128 4.231-.122 6.297-.683 2.067-.561 4.062-1.434 5.873-2.549 1.809-1.115 3.433-2.471 4.761-4 1.326-1.526 2.357-3.222 2.985-5.02.626-1.792.795-3.517.565-5.1-.229-1.577-.852-3.013-1.811-4.237-.955-1.219-2.244-2.228-3.808-2.955-1.558-.724-3.392-1.17-5.445-1.266m.085-56.479-1.377-1.458c1.828-2.473 3.981-4.725 6.362-6.711 2.375-1.981 4.98-3.7 7.72-5.108 2.738-1.408 5.615-2.508 8.537-3.252 2.925-.744 5.9-1.133 8.83-1.113 3.817.026 7.289.74 10.289 1.999 3.019 1.266 5.566 3.086 7.505 5.315 1.954 2.246 3.293 4.908 3.875 7.836.586 2.951.403 6.171-.697 9.502-.684 2.071-1.639 4.157-2.825 6.205-1.19 2.056-2.611 4.072-4.22 5.996-1.614 1.93-3.416 3.764-5.361 5.45-1.95 1.689-4.042 3.228-6.23 4.56-1.1.671-2.202 1.281-3.295 1.841-1.094.562-2.181 1.073-3.252 1.548-1.071.475-2.125.914-3.155 1.328-1.03.414-2.035.803-3.007 1.181-1.852.716-3.64 1.409-5.332 2.166-1.692.757-3.288 1.579-4.755 2.556-1.468.978-2.808 2.111-3.988 3.491-1.183 1.382-2.206 3.015-3.038 4.99l-2.432-.103c-.054-.657-.08-1.256-.075-1.824.005-.567.041-1.101.11-1.627.069-.525.172-1.041.312-1.572.14-.531.316-1.076.531-1.66.438-1.187 1.063-2.274 1.838-3.295.774-1.02 1.7-1.974 2.741-2.895 1.04-.919 2.195-1.807 3.431-2.692 1.234-.885 2.55-1.77 3.91-2.684 1.676-1.125 3.406-2.286 5.107-3.537 1.7-1.25 3.37-2.588 4.931-4.069 1.558-1.478 3.003-3.096 4.256-4.906 1.249-1.804 2.304-3.796 3.085-6.025.833-2.377 1.058-4.644.756-6.705-.3-2.05-1.121-3.897-2.383-5.451-1.256-1.545-2.949-2.8-5.004-3.676-2.045-.873-4.451-1.371-7.145-1.406-1.522-.02-2.955.067-4.337.275-1.382.208-2.715.536-4.04 1-1.324.464-2.641 1.063-3.99 1.812-1.349.751-2.732 1.651-4.188 2.718m30.34-18.385c-3.061-.02-6.167.388-9.218 1.168-3.047.779-6.046 1.931-8.896 3.404-2.852 1.474-5.561 3.272-8.024 5.343-2.471 2.076-4.7 4.431-6.585 7.014l-.159.225 2.236 2.375.447-.335c1.438-1.076 2.796-1.985 4.117-2.741 1.32-.756 2.604-1.36 3.892-1.828 1.288-.467 2.582-.799 3.92-1.008 1.341-.209 2.728-.297 4.203-.277 2.562.035 4.848.511 6.791 1.346 1.951.838 3.558 2.037 4.748 3.513 1.196 1.483 1.972 3.247 2.252 5.203.282 1.966.062 4.128-.734 6.395-.756 2.152-1.782 4.078-2.998 5.825-1.22 1.752-2.63 3.322-4.149 4.758-1.522 1.439-3.152 2.742-4.81 3.959-1.66 1.219-3.347 2.352-4.981 3.449-1.347.904-2.677 1.796-3.942 2.704-1.267.909-2.469 1.834-3.561 2.803-1.094.97-2.077 1.984-2.904 3.071-.828 1.089-1.5 2.251-1.969 3.516-.234.634-.425 1.224-.573 1.797-.149.575-.257 1.132-.328 1.701-.07.569-.103 1.149-.102 1.769.001.62.037 1.278.103 2.003l.027.273 4.121.177.168-.416c.77-1.943 1.718-3.54 2.824-4.889 1.104-1.345 2.368-2.445 3.771-3.396 1.402-.949 2.945-1.75 4.608-2.495 1.663-.745 3.447-1.437 5.331-2.167.99-.382 2.012-.778 3.06-1.199 1.048-.421 2.121-.868 3.212-1.353 1.091-.485 2.2-1.008 3.318-1.583 1.118-.574 2.247-1.199 3.377-1.888 2.248-1.37 4.396-2.952 6.399-4.688 1.998-1.732 3.848-3.616 5.504-5.598 1.652-1.975 3.11-4.044 4.33-6.154 1.215-2.101 2.194-4.241 2.893-6.364 1.131-3.438 1.315-6.762.704-9.807-.607-3.02-1.997-5.765-4.021-8.08-2.009-2.296-4.645-4.171-7.767-5.474-3.102-1.292-6.69-2.026-10.635-2.051"/>
    </g>
  </g>
  <path fill="#de8700" fill-rule="evenodd" d="M68.96522 248.73592c-6.73387 11.61467-2.02828 28.28551-15.12906 36.62825l6.19318-.35389-.70779 5.66233c11.78564-7.09363 13.884851-26.17858 17.517851-41.05196l-7.874181-.88473z"/>
</svg>