<svg width="50" height="50" viewBox="0 0 50 50" fill="none" xmlns="http://www.w3.org/2000/svg">
    <path d="M23.5652 25.2247L15.2464 16.3117C14.7319 15.7972 13.9058 15.7972 13.3985 16.3117L6.03622 24.2682"
          fill="#C973C9"/>
    <path d="M23.5652 25.5218C23.4855 25.5218 23.4058 25.4928 23.3478 25.4276L15.029 16.5073C14.6449 16.1232 14 16.1232 13.6087 16.5073L6.25361 24.4565C6.13767 24.5725 5.95651 24.5797 5.83332 24.471C5.71738 24.3551 5.71013 24.1739 5.81883 24.0508L13.1811 16.0942C13.8188 15.4565 14.8333 15.4565 15.4638 16.0942L23.7898 25.0145C23.9058 25.1305 23.8985 25.3261 23.7753 25.4348C23.7174 25.4855 23.6449 25.5145 23.5725 25.5145L23.5652 25.5218Z"
          fill="#2D2D2D"/>
    <path d="M26.4348 25.2247L34.7536 16.3117C35.2681 15.7972 36.0942 15.7972 36.6014 16.3117L43.9638 24.2682"
          fill="#C973C9"/>
    <path d="M26.4348 25.5217C26.3623 25.5217 26.2826 25.4999 26.2319 25.4419C26.1159 25.326 26.1087 25.1448 26.2174 25.0217L34.5362 16.1014C35.1667 15.4709 36.1884 15.4709 36.8188 16.1014L44.1884 24.0651C44.3043 24.1811 44.2899 24.3767 44.1739 24.4854C44.058 24.6014 43.8623 24.5869 43.7536 24.4709L36.3913 16.5144C36.0072 16.1304 35.3623 16.1304 34.971 16.5144L26.6594 25.4202C26.6014 25.4854 26.5217 25.5144 26.442 25.5144L26.4348 25.5217Z"
          fill="#2D2D2D"/>
    <path d="M8.92752 41.0362C8.7826 41.0362 8.66665 40.9348 8.63767 40.7971L8.04347 37.8188C8.02897 37.7319 8.04347 37.6377 8.10144 37.5724C8.15216 37.5 8.24637 37.4637 8.33332 37.4637H41.6667C41.7536 37.4637 41.8406 37.5072 41.8985 37.5724C41.9493 37.6449 41.9783 37.7319 41.9565 37.8188L41.3623 40.7971C41.3333 40.9348 41.2101 41.0362 41.0725 41.0362H8.92752Z"
          fill="#C973C9"/>
    <path d="M41.6667 37.7608L41.0725 40.7391H8.92755L8.33334 37.7608H41.6667ZM41.6667 37.1666H8.3261C8.14494 37.1666 7.97827 37.2463 7.86958 37.384C7.75363 37.5289 7.71015 37.7029 7.74639 37.8768L8.34059 40.855C8.39131 41.1376 8.63769 41.3333 8.9203 41.3333H41.0652C41.3478 41.3333 41.5942 41.1304 41.6449 40.855L42.2319 37.9202C42.2464 37.8695 42.2536 37.8188 42.2536 37.7608C42.2536 37.4347 41.9855 37.1666 41.6594 37.1666H41.6667Z"
          fill="#2D2D2D"/>
    <path d="M8.33334 38.058C8.19566 38.058 8.07971 37.9638 8.04348 37.8333L2.09421 13.4275C2.06522 13.3044 2.11595 13.1667 2.23189 13.1015C2.28261 13.0797 2.33334 13.058 2.38406 13.058C2.45653 13.058 2.53624 13.087 2.58696 13.1449L14.2754 24.2536L24.7899 13.1594C24.8406 13.1015 24.9275 13.0652 25.0073 13.0652C25.087 13.0652 25.1667 13.1015 25.2246 13.1594L35.7391 24.2536L47.4275 13.1449C47.4855 13.0942 47.558 13.058 47.6304 13.058C47.6812 13.058 47.7319 13.0725 47.7826 13.1015C47.8986 13.1667 47.9565 13.3044 47.9203 13.4275L41.971 37.8333C41.942 37.9638 41.8188 38.058 41.6812 38.058H8.34783H8.36232H8.33334Z"
          fill="#E4B9E4"/>
    <path d="M47.6159 13.3552L41.6667 37.761H8.33334L2.38406 13.3552L14.2899 24.6667L25.0073 13.3552L35.7246 24.6667L47.6304 13.3552H47.6159ZM47.6159 12.761H47.5942C47.442 12.761 47.3116 12.8262 47.2102 12.9131L35.7391 23.8117L25.4348 12.9349C25.3188 12.8189 25.1667 12.7537 25 12.7537C24.8333 12.7537 24.6812 12.8189 24.5652 12.9349L14.2609 23.8117L2.78986 12.9131C2.67392 12.8044 2.52899 12.7465 2.37681 12.7465C2.27537 12.7465 2.17392 12.7682 2.07971 12.8262C1.85508 12.9566 1.73189 13.2247 1.79711 13.4783L7.74638 37.8841C7.8116 38.1523 8.05073 38.3334 8.32609 38.3334H41.6594C41.9348 38.3334 42.1739 38.145 42.2391 37.8841L48.1812 13.5218C48.1957 13.4639 48.2101 13.4059 48.2101 13.3407C48.2101 13.0146 47.9493 12.7465 47.6159 12.7465V12.761Z"
          fill="#2D2D2D"/>
    <path d="M38.3913 31.8116H11.0072C10.8406 31.8116 10.7101 31.6812 10.7101 31.5145C10.7101 31.3478 10.8406 31.2174 11.0072 31.2174H38.3913C38.558 31.2174 38.6884 31.3478 38.6884 31.5145C38.6884 31.6812 38.558 31.8116 38.3913 31.8116Z"
          fill="#2D2D2D"/>
    <path d="M25 36.2754C24.9203 36.2754 24.8478 36.2464 24.7899 36.1884L20.3261 31.7247C20.2754 31.674 20.2391 31.5942 20.2391 31.5145C20.2391 31.4348 20.2681 31.3624 20.3261 31.3044L24.7899 26.8406C24.8478 26.7826 24.9275 26.7537 25 26.7537C25.0725 26.7537 25.1522 26.7826 25.2102 26.8406L29.6739 31.3044C29.7246 31.3551 29.7609 31.4348 29.7609 31.5145C29.7609 31.5942 29.7319 31.6667 29.6739 31.7247L25.2102 36.1884C25.1522 36.2464 25.0725 36.2754 25 36.2754Z"
          fill="white"/>
    <path d="M25 27.0507L29.4638 31.5145L25 35.9783L20.5362 31.5145L25 27.0507ZM25 26.4565C24.8478 26.4565 24.6956 26.5145 24.5797 26.6305L20.1159 31.0942C20 31.2102 19.942 31.3551 19.942 31.5145C19.942 31.6739 20.0072 31.8261 20.1159 31.9348L24.5797 36.3986C24.6956 36.5145 24.8478 36.5725 25 36.5725C25.1522 36.5725 25.3043 36.5145 25.4203 36.3986L29.884 31.9348C30 31.8189 30.058 31.6739 30.058 31.5145C30.058 31.3551 29.9927 31.2029 29.884 31.0942L25.4203 26.6305C25.3043 26.5145 25.1522 26.4565 25 26.4565Z"
          fill="#2D2D2D"/>
    <path d="M7.63043 35.1884C7.63043 35.1884 7.5797 35.1884 7.55072 35.174C7.44927 35.145 7.36956 35.058 7.34057 34.9566L5.63043 27.9421C5.60144 27.8261 5.64492 27.6885 5.75362 27.6232C5.80434 27.587 5.86231 27.5725 5.92028 27.5725C5.97825 27.5725 6.03622 27.587 6.0942 27.6232L11.1812 31.2609C11.2536 31.3116 11.2971 31.3913 11.3043 31.4783C11.3043 31.5653 11.2826 31.6522 11.2174 31.7102L7.83333 35.0942C7.7826 35.145 7.70289 35.1812 7.62318 35.1812H7.60869L7.63043 35.1884Z"
          fill="white"/>
    <path d="M5.92031 27.8768L11.0073 31.5145L7.62321 34.8985L5.91306 27.884M5.91306 27.2898C5.79712 27.2898 5.68118 27.3261 5.57973 27.3913C5.36958 27.529 5.27538 27.7826 5.33335 28.029L7.0435 35.0435C7.09422 35.2536 7.25364 35.4203 7.46378 35.4782C7.51451 35.4927 7.57248 35.5 7.62321 35.5C7.77538 35.5 7.9348 35.442 8.04349 35.3261L11.4276 31.942C11.5507 31.8188 11.6087 31.6449 11.6015 31.471C11.587 31.2971 11.4928 31.1377 11.3478 31.0362L6.26089 27.3985C6.15944 27.3261 6.03625 27.2826 5.91306 27.2826V27.2898Z"
          fill="#2D2D2D"/>
    <path d="M42.2464 35.6666C42.1667 35.6666 42.0942 35.6376 42.0362 35.5796L38.1812 31.7246C38.1232 31.6666 38.087 31.5724 38.0942 31.4927C38.0942 31.4057 38.1449 31.326 38.2174 31.2753L44.029 27.1231C44.0797 27.0869 44.1449 27.0724 44.2029 27.0724C44.2609 27.0724 44.3189 27.0869 44.3696 27.1231C44.471 27.1956 44.5217 27.3188 44.4928 27.442L42.5435 35.4492C42.5217 35.5579 42.4348 35.6304 42.3333 35.6666C42.3116 35.6666 42.2826 35.6811 42.2536 35.6811H42.2391L42.2464 35.6666Z"
          fill="white"/>
    <path d="M44.2029 27.3624L42.2536 35.3696L38.3985 31.5146L44.2101 27.3624H44.2029ZM44.2029 26.7682C44.0725 26.7682 43.9493 26.8117 43.8551 26.8841L38.0507 31.0363C37.9058 31.1378 37.8188 31.2972 37.7971 31.4711C37.7826 31.645 37.8478 31.8189 37.971 31.9421L41.8261 35.7972C41.942 35.9131 42.0942 35.9711 42.2464 35.9711C42.2971 35.9711 42.3551 35.9711 42.4058 35.9493C42.6159 35.8914 42.7754 35.732 42.8188 35.5146L44.7609 27.5436C44.7754 27.4856 44.7898 27.4276 44.7898 27.3624C44.7898 27.0363 44.5217 26.7682 44.1956 26.7682H44.2029Z"
          fill="#2D2D2D"/>
    <path d="M14.2826 13.058C13.2971 13.058 12.5 13.8551 12.5 14.8406C12.5 15.8261 13.2971 16.6232 14.2826 16.6232C15.2681 16.6232 16.0652 15.8261 16.0652 14.8406C16.0652 13.8551 15.2681 13.058 14.2826 13.058Z"
          fill="#C973C9"/>
    <path d="M14.2826 16.9275C13.1304 16.9275 12.2029 15.9927 12.2029 14.8478C12.2029 13.7028 13.1377 12.7681 14.2826 12.7681C15.4275 12.7681 16.3623 13.7028 16.3623 14.8478C16.3623 15.9927 15.4275 16.9275 14.2826 16.9275ZM14.2826 13.355C13.4637 13.355 12.7971 14.0217 12.7971 14.8405C12.7971 15.6594 13.4637 16.326 14.2826 16.326C15.1014 16.326 15.7681 15.6594 15.7681 14.8405C15.7681 14.0217 15.1014 13.355 14.2826 13.355Z"
          fill="#2D2D2D"/>
    <path d="M35.7174 13.058C34.7319 13.058 33.9348 13.8551 33.9348 14.8406C33.9348 15.8261 34.7319 16.6232 35.7174 16.6232C36.7029 16.6232 37.5 15.8261 37.5 14.8406C37.5 13.8551 36.7029 13.058 35.7174 13.058Z"
          fill="#C973C9"/>
    <path d="M35.7174 16.9275C34.5652 16.9275 33.6377 15.9927 33.6377 14.8478C33.6377 13.7028 34.5725 12.7681 35.7174 12.7681C36.8623 12.7681 37.7971 13.7028 37.7971 14.8478C37.7971 15.9927 36.8623 16.9275 35.7174 16.9275ZM35.7174 13.355C34.8986 13.355 34.2319 14.0217 34.2319 14.8405C34.2319 15.6594 34.8986 16.326 35.7174 16.326C36.5362 16.326 37.2029 15.6594 37.2029 14.8405C37.2029 14.0217 36.5362 13.355 35.7174 13.355Z"
          fill="#2D2D2D"/>
    <path d="M25 14.8478C26.8116 14.8478 28.2754 13.3841 28.2754 11.5725C28.2754 9.76089 26.8116 8.29712 25 8.29712C23.1884 8.29712 21.7246 9.76089 21.7246 11.5725C21.7246 13.3841 23.1884 14.8478 25 14.8478Z"
          fill="#E4B9E4"/>
    <path d="M25 8.5942C26.6449 8.5942 27.9783 9.92754 27.9783 11.5725C27.9783 13.2174 26.6449 14.5507 25 14.5507C23.3551 14.5507 22.0218 13.2174 22.0218 11.5725C22.0218 9.92754 23.3551 8.5942 25 8.5942ZM25 8C23.029 8 21.4276 9.60145 21.4276 11.5725C21.4276 13.5435 23.029 15.1449 25 15.1449C26.971 15.1449 28.5725 13.5435 28.5725 11.5725C28.5725 9.60145 26.971 8 25 8Z"
          fill="#2D2D2D"/>
    <path d="M2.38406 15.4421C3.53624 15.4421 4.47102 14.5073 4.47102 13.3624C4.47102 12.2174 3.53624 11.2754 2.38406 11.2754C1.23189 11.2754 0.304352 12.2102 0.304352 13.3624C0.304352 14.5145 1.23914 15.4421 2.38406 15.4421Z"
          fill="#E4B9E4"/>
    <path d="M2.38406 11.5725C3.36957 11.5725 4.16667 12.3696 4.16667 13.3551C4.16667 14.3406 3.36957 15.1377 2.38406 15.1377C1.39855 15.1377 0.601451 14.3406 0.601451 13.3551C0.601451 12.3696 1.39855 11.5725 2.38406 11.5725ZM2.38406 10.9783C1.06522 10.9783 0 12.0435 0 13.3623C0 14.6812 1.06522 15.7464 2.38406 15.7464C3.7029 15.7464 4.76812 14.6812 4.76812 13.3623C4.76812 12.0435 3.7029 10.9783 2.38406 10.9783Z"
          fill="#2D2D2D"/>
    <path d="M47.6159 15.4421C48.7681 15.4421 49.6956 14.5073 49.6956 13.3624C49.6956 12.2174 48.7609 11.2754 47.6159 11.2754C46.471 11.2754 45.5362 12.2102 45.5362 13.3624C45.5362 14.5145 46.471 15.4421 47.6159 15.4421Z"
          fill="#E4B9E4"/>
    <path d="M47.6159 11.5725C48.6014 11.5725 49.3985 12.3696 49.3985 13.3551C49.3985 14.3406 48.6014 15.1377 47.6159 15.1377C46.6304 15.1377 45.8333 14.3406 45.8333 13.3551C45.8333 12.3696 46.6304 11.5725 47.6159 11.5725ZM47.6159 10.9783C46.2971 10.9783 45.2319 12.0435 45.2319 13.3623C45.2319 14.6812 46.2971 15.7464 47.6159 15.7464C48.9348 15.7464 50 14.6812 50 13.3623C50 12.0435 48.9348 10.9783 47.6159 10.9783Z"
          fill="#2D2D2D"/>
</svg>
