<svg width="50" height="50" viewBox="0 0 50 50" fill="none" xmlns="http://www.w3.org/2000/svg">
    <path d="M25.0054 42.4144C24.9313 42.4144 24.8504 42.3874 24.7965 42.3267L0.400652 17.9309C0.299564 17.8298 0.286085 17.6748 0.360216 17.5602L6.90396 7.44472C6.95788 7.36385 7.05223 7.30994 7.15331 7.30994H42.8575C42.9586 7.30994 43.053 7.36385 43.1069 7.44472L49.6506 17.5602C49.7247 17.6815 49.7113 17.8365 49.6102 17.9309L25.2143 42.3267C25.1537 42.3874 25.0795 42.4144 25.0054 42.4144Z"
          fill="#4EBEE5"/>
    <path d="M42.8575 7.59976L49.4013 17.7153L25.0054 42.1111L0.609574 17.7153L7.15332 7.59976H42.8575ZM42.8575 7.00671H7.15332C6.95115 7.00671 6.76245 7.1078 6.65462 7.28302L0.110875 17.3985C-0.0441259 17.6344 -0.0104321 17.9444 0.185004 18.1398L24.5809 42.5357C24.7022 42.657 24.8504 42.7109 25.0054 42.7109C25.1604 42.7109 25.3087 42.6503 25.43 42.5357L49.8258 18.1398C50.0213 17.9444 50.055 17.6344 49.9 17.3985L43.3562 7.28302C43.2484 7.11454 43.0597 7.00671 42.8575 7.00671Z"
          fill="#2D2D2D"/>
    <path d="M35.1209 18.0186C35.0063 18.0186 34.9052 17.9512 34.8513 17.8501C34.8042 17.749 34.8176 17.6277 34.8783 17.5333L42.6149 7.41781C42.6688 7.34368 42.7564 7.29651 42.8507 7.29651H42.8642C42.9586 7.29651 43.0462 7.35042 43.1001 7.43129L49.6438 17.5468C49.7045 17.6344 49.7112 17.7557 49.6573 17.8501C49.6034 17.9444 49.5023 18.0051 49.3945 18.0051H35.1142L35.1209 18.0186Z"
          fill="#4EBEE5"/>
    <path d="M42.8575 7.59979L49.4012 17.7153H35.1209L42.8575 7.59979ZM42.8575 7.00674C42.6755 7.00674 42.5003 7.08761 42.3857 7.23587L34.6492 17.3514C34.5144 17.5266 34.4874 17.776 34.5885 17.9781C34.6896 18.1803 34.8985 18.3084 35.1209 18.3084H49.4012C49.6236 18.3084 49.8191 18.187 49.9269 17.9983C50.0347 17.8097 50.0212 17.5738 49.8999 17.3918L43.3562 7.27631C43.2484 7.11457 43.0731 7.01348 42.8777 7H42.8507L42.8575 7.00674Z"
          fill="#2D2D2D"/>
    <path d="M34.5211 18.0185C34.4402 18.0185 34.3593 17.9848 34.3054 17.9242L24.783 7.80864C24.7021 7.72103 24.6819 7.59298 24.729 7.48516C24.7762 7.37733 24.884 7.30994 25.0054 7.30994H42.8575C42.972 7.30994 43.0798 7.37733 43.127 7.48516C43.1742 7.59298 43.1607 7.71429 43.0866 7.8019L34.757 17.9174C34.703 17.9848 34.6222 18.0252 34.5346 18.0252H34.5211V18.0185Z"
          fill="#8FD8F2"/>
    <path d="M42.8575 7.59979L34.5278 17.7153L25.0054 7.59979H42.8575ZM42.8575 7.00674H25.0054C24.7695 7.00674 24.5538 7.14826 24.4595 7.36392C24.3651 7.58631 24.4123 7.83566 24.574 8.00414L34.0965 18.1197C34.2111 18.241 34.3661 18.3016 34.5278 18.3016H34.548C34.7233 18.3016 34.8783 18.2207 34.9861 18.086L43.3157 7.97044C43.464 7.79522 43.4909 7.54587 43.3898 7.33696C43.2888 7.12804 43.0798 7 42.8575 7V7.00674Z"
          fill="#2D2D2D"/>
    <path d="M15.4695 18.0185C15.3886 18.0185 15.301 17.9781 15.2471 17.9107L6.91744 7.79518C6.84331 7.70757 6.82983 7.57953 6.87701 7.47844C6.92418 7.37735 7.03201 7.30322 7.14657 7.30322H24.9987C25.12 7.30322 25.2278 7.37735 25.275 7.47844C25.3222 7.58627 25.3019 7.71431 25.2211 7.80192L15.6986 17.9174C15.6447 17.9781 15.5638 18.0118 15.4829 18.0118H15.4695V18.0185Z"
          fill="white"/>
    <path d="M25.0054 7.59979L15.4829 17.7153L7.15326 7.59979H25.0054ZM25.0054 7.00674H7.15326C6.92413 7.00674 6.71522 7.13478 6.62087 7.3437C6.51978 7.55261 6.55348 7.79522 6.695 7.97718L15.0246 18.0927C15.1325 18.2207 15.2942 18.3016 15.4627 18.3084H15.4829C15.6514 18.3084 15.8064 18.241 15.9142 18.1264L25.4165 8.02436C25.531 7.91653 25.5917 7.76153 25.5917 7.59305C25.5917 7.26283 25.3221 7 24.9986 7L25.0054 7.00674Z"
          fill="#2D2D2D"/>
    <path d="M0.602792 18.0185C0.494965 18.0185 0.393877 17.9579 0.339964 17.8635C0.28605 17.7692 0.292787 17.6478 0.35344 17.5602L6.89719 7.44472C6.9511 7.36385 7.03871 7.31668 7.13306 7.30994H7.14654C7.24089 7.30994 7.32176 7.35037 7.38241 7.43124L15.119 17.5468C15.1931 17.6344 15.1931 17.7557 15.146 17.8635C15.0988 17.9646 14.991 18.032 14.8764 18.032H0.596051L0.602792 18.0185Z"
          fill="#8FD8F2"/>
    <path d="M7.14654 7.59976L14.8831 17.7153H0.602794L7.14654 7.59976ZM7.14654 7.00671H7.11958C6.92415 7.00671 6.74893 7.11454 6.6411 7.28302L0.0973551 17.3985C-0.0239502 17.5805 -0.03069 17.8164 0.0703978 18.0051C0.171486 18.1938 0.37366 18.3151 0.596053 18.3151H14.8764C15.1055 18.3151 15.3077 18.187 15.4088 17.9848C15.5099 17.7827 15.4829 17.5401 15.3481 17.3581L7.61154 7.24259C7.49698 7.09432 7.3285 7.01345 7.1398 7.01345L7.14654 7.00671Z"
          fill="#2D2D2D"/>
    <path d="M24.9987 42.4144C24.8706 42.4144 24.7696 42.3403 24.7224 42.2257L15.1999 17.8299C15.1662 17.7423 15.173 17.6345 15.2269 17.5536C15.2808 17.4727 15.3751 17.4255 15.4695 17.4255H34.5144C34.6155 17.4255 34.7031 17.4727 34.757 17.5536C34.8109 17.6345 34.8244 17.7355 34.784 17.8299L25.2615 42.2257C25.2143 42.3403 25.1065 42.4144 24.9852 42.4144H24.9987Z"
          fill="#8FD8F2"/>
    <path d="M34.5211 17.7154L24.9986 42.1112L15.4762 17.7154H34.5211ZM34.5211 17.1223H15.4762C15.2807 17.1223 15.092 17.2167 14.9842 17.3851C14.8696 17.5469 14.8494 17.7558 14.9168 17.9378L24.4393 42.3336C24.5269 42.5627 24.7493 42.7177 24.9919 42.7177C25.2345 42.7177 25.4569 42.5695 25.5445 42.3336L35.0535 17.9715C35.0872 17.8973 35.1074 17.8097 35.1074 17.7221C35.1074 17.3919 34.8378 17.1291 34.5144 17.1291L34.5211 17.1223Z"
          fill="#2D2D2D"/>
    <path d="M15.4829 18.0185C15.3616 18.0185 15.2538 17.9444 15.2066 17.8433C15.1595 17.7355 15.1797 17.6074 15.2606 17.5198L24.783 7.40428C24.8369 7.34363 24.9178 7.30994 24.9987 7.30994C25.0795 7.30994 25.1604 7.34363 25.2143 7.40428L34.7368 17.5198C34.8177 17.6074 34.8379 17.7355 34.7907 17.8433C34.7435 17.9511 34.6357 18.0185 34.5144 18.0185H15.4695H15.4829Z"
          fill="#4EBEE5"/>
    <path d="M24.9986 7.59976L34.5211 17.7153H15.4762L24.9986 7.59976ZM24.9986 7.00671C24.8302 7.00671 24.6752 7.07411 24.5673 7.18867L15.0449 17.3042C14.8831 17.4794 14.836 17.7355 14.9303 17.9444C15.0247 18.1668 15.2403 18.3016 15.4762 18.3016H34.5211C34.757 18.3016 34.9726 18.1601 35.067 17.9444C35.1613 17.722 35.1142 17.4727 34.9524 17.3042L25.43 7.18867C25.3154 7.06737 25.1604 7.00671 24.9986 7.00671Z"
          fill="#2D2D2D"/>
</svg>
