<svg width="50" height="50" viewBox="0 0 50 50" fill="none" xmlns="http://www.w3.org/2000/svg">
    <path d="M15.9426 46.6762C15.8596 46.6762 15.7766 46.643 15.7185 46.5766L3.42338 34.2815C3.36527 34.2234 3.32376 34.1403 3.32376 34.0573V15.9426C3.32376 15.8596 3.35697 15.7766 3.42338 15.7184L15.7185 3.42335C15.7766 3.36524 15.8596 3.32373 15.9426 3.32373H34.0573C34.1404 3.32373 34.2234 3.35694 34.2815 3.42335L46.5766 15.7184C46.6347 15.7766 46.6762 15.8596 46.6762 15.9426V34.0573C46.6762 34.1403 46.643 34.2234 46.5766 34.2815L34.2815 46.5766C34.2234 46.6347 34.1404 46.6762 34.0573 46.6762H15.9426Z"
          fill="#BDEFE6"/>
    <path d="M34.0574 3.64755L46.3525 15.9426V34.0574L34.0574 46.3525H15.9426L3.64755 34.0574V15.9426L15.9426 3.64755H34.0574ZM34.0574 3H15.9426C15.7683 3 15.6023 3.07472 15.486 3.19094L3.19094 15.486C3.06641 15.6106 3 15.7683 3 15.9426V34.0574C3 34.2317 3.07472 34.3977 3.19094 34.514L15.486 46.8091C15.6106 46.9336 15.7683 47 15.9426 47H34.0574C34.2317 47 34.3977 46.9253 34.514 46.8091L46.8091 34.514C46.9336 34.3894 47 34.2317 47 34.0574V15.9426C47 15.7683 46.9253 15.6023 46.8091 15.486L34.514 3.19094C34.3894 3.06641 34.2317 3 34.0574 3Z"
          fill="#2D2D2D"/>
    <path d="M20.4672 14.3237C20.3343 14.3237 20.2181 14.249 20.1683 14.1328L15.6355 3.78033C15.594 3.68071 15.6023 3.56449 15.6604 3.47316C15.7185 3.38184 15.8181 3.32373 15.9343 3.32373H34.0491C34.157 3.32373 34.2649 3.37354 34.323 3.47316C34.3811 3.56449 34.3977 3.68071 34.3479 3.78033L29.8151 14.1328C29.7653 14.249 29.6491 14.3237 29.5162 14.3237H20.4589H20.4672Z"
          fill="white"/>
    <path d="M34.0574 3.64755L29.5245 14H20.4672L15.9344 3.64755H34.0491H34.0574ZM34.0574 3H15.9426C15.7268 3 15.5193 3.10792 15.403 3.29056C15.2868 3.47321 15.2702 3.70566 15.3532 3.90491L19.886 14.2574C19.9857 14.4898 20.2264 14.6475 20.4838 14.6475H29.5411C29.7985 14.6475 30.031 14.4898 30.1389 14.2574L34.6717 3.90491C34.763 3.70566 34.7464 3.47321 34.6219 3.29056C34.5057 3.10792 34.2981 3 34.0823 3H34.0574Z"
          fill="#2D2D2D"/>
    <path d="M46.3525 34.381C46.311 34.381 46.2611 34.381 46.2196 34.3561L35.8672 29.8233C35.751 29.7735 35.6762 29.6573 35.6762 29.5244V20.4671C35.6762 20.3342 35.751 20.218 35.8672 20.1682L46.2196 15.6354C46.2196 15.6354 46.3027 15.6105 46.3525 15.6105C46.4189 15.6105 46.477 15.6271 46.5268 15.6603C46.6181 15.7184 46.6762 15.818 46.6762 15.9342V34.049C46.6762 34.1569 46.6264 34.2648 46.5268 34.3229C46.477 34.3561 46.4106 34.3727 46.3525 34.3727V34.381Z"
          fill="#7EE0CA"/>
    <path d="M46.3525 15.9427V34.0574L36 29.5246V20.4672L46.3525 15.9344V15.9427ZM46.3525 15.2952C46.2612 15.2952 46.1781 15.3118 46.0951 15.345L35.7427 19.8778C35.5102 19.9774 35.3525 20.2182 35.3525 20.4755V29.5329C35.3525 29.7903 35.5102 30.0227 35.7427 30.1306L46.0951 34.6635C46.1781 34.705 46.2612 34.7133 46.3525 34.7133C46.477 34.7133 46.6015 34.6718 46.7095 34.6137C46.8921 34.4974 47 34.2899 47 34.074V15.9593C47 15.7352 46.8921 15.5359 46.7095 15.4197C46.6015 15.345 46.477 15.3201 46.3525 15.3201V15.2952Z"
          fill="#2D2D2D"/>
    <path d="M15.9426 46.6763C15.8347 46.6763 15.7268 46.6265 15.6687 46.5268C15.6106 46.4355 15.594 46.3193 15.6438 46.2197L20.1766 35.8672C20.2264 35.751 20.3427 35.6763 20.4755 35.6763H29.5328C29.6657 35.6763 29.7819 35.751 29.8317 35.8672L34.3645 46.2197C34.406 46.3193 34.3977 46.4355 34.3396 46.5268C34.2815 46.6182 34.1819 46.6763 34.0657 46.6763H15.951H15.9426Z"
          fill="#7EE0CA"/>
    <path d="M29.5328 36L34.0657 46.3524H15.9509L20.4838 36H29.5411H29.5328ZM29.5328 35.3524H20.4755C20.2181 35.3524 19.9857 35.5102 19.8777 35.7426L15.3449 46.0951C15.2536 46.2943 15.2702 46.5268 15.3947 46.7094C15.5109 46.892 15.7185 47 15.9343 47H34.0491C34.2649 47 34.4725 46.892 34.5887 46.7094C34.7049 46.5268 34.7215 46.2943 34.6385 46.0951L30.1057 35.7426C30.006 35.5102 29.7653 35.3524 29.5079 35.3524H29.5328Z"
          fill="#2D2D2D"/>
    <path d="M3.64753 34.3812C3.58112 34.3812 3.52301 34.3646 3.4732 34.3314C3.38187 34.2732 3.32376 34.1736 3.32376 34.0574V15.9427C3.32376 15.8347 3.37357 15.7268 3.4732 15.6687C3.52301 15.6355 3.58942 15.6189 3.64753 15.6189C3.68904 15.6189 3.73885 15.6189 3.78036 15.6438L14.1328 20.1766C14.249 20.2264 14.3238 20.3427 14.3238 20.4755V29.5329C14.3238 29.6657 14.249 29.7819 14.1328 29.8317L3.78036 34.3646C3.78036 34.3646 3.69735 34.3895 3.64753 34.3895V34.3812Z"
          fill="#7EE0CA"/>
    <path d="M3.64755 15.9427L14 20.4755V29.5329L3.64755 34.0657V15.951V15.9427ZM3.64755 15.2952C3.52302 15.2952 3.39849 15.3367 3.29056 15.3948C3.10792 15.511 3 15.7186 3 15.9344V34.0491C3 34.2733 3.10792 34.4725 3.29056 34.5888C3.39849 34.6635 3.52302 34.6884 3.64755 34.6884C3.73887 34.6884 3.82189 34.6718 3.90491 34.6386L14.2574 30.1057C14.4898 30.0061 14.6475 29.7654 14.6475 29.508V20.4506C14.6475 20.1933 14.4898 19.9608 14.2574 19.8529L3.90491 15.3201C3.82189 15.2786 3.73887 15.2703 3.64755 15.2703V15.2952Z"
          fill="#2D2D2D"/>
    <path d="M20.4672 35.6763C20.3841 35.6763 20.3011 35.6431 20.243 35.5767L14.4234 29.7571C14.3653 29.6989 14.3238 29.6159 14.3238 29.5329V20.4756C14.3238 20.3925 14.357 20.3095 14.4234 20.2514L20.243 14.4318C20.3011 14.3737 20.3841 14.3322 20.4672 14.3322H29.5245C29.6075 14.3322 29.6906 14.3654 29.7487 14.4318L35.5683 20.2514C35.6264 20.3095 35.6679 20.3925 35.6679 20.4756V29.5329C35.6679 29.6159 35.6347 29.6989 35.5683 29.7571L29.7487 35.5767C29.6906 35.6348 29.6075 35.6763 29.5245 35.6763H20.4672Z"
          fill="white"/>
    <path d="M29.5329 14.6475L35.3525 20.4672V29.5245L29.5329 35.3442H20.4755L14.6559 29.5245V20.4672L20.4755 14.6475H29.5329ZM29.5329 14H20.4755C20.3012 14 20.1351 14.0747 20.0189 14.1909L14.1993 20.0106C14.0747 20.1351 14.0083 20.2928 14.0083 20.4672V29.5245C14.0083 29.6989 14.0831 29.8649 14.1993 29.9811L20.0189 35.8008C20.1434 35.9253 20.3012 35.9917 20.4755 35.9917H29.5329C29.7072 35.9917 29.8732 35.917 29.9895 35.8008L35.8091 29.9811C35.9336 29.8566 36 29.6989 36 29.5245V20.4672C36 20.2928 35.9253 20.1268 35.8091 20.0106L29.9895 14.1909C29.8649 14.0664 29.7072 14 29.5329 14Z"
          fill="#2D2D2D"/>
</svg>
