
<svg
        width="1403"
        height="698"
        viewBox="0 0 1403 698"
        fill="none"
        xmlns="http://www.w3.org/2000/svg"
>
    <rect
            id="1"
            x="91"
            y="146.052"
            width="29"
            height="160"
            stroke="#786552"
            stroke-width="8"
    />
    <rect
            id="2"
            x="120"
            y="146.052"
            width="29"
            height="160"
            stroke="#786552"
            stroke-width="8"
    />
    <path
            d="M104.66 324.438C104.66 324.758 104.527 329.998 104.26 340.158L107.58 340.518C107.58 341.691 107.273 342.851 106.66 343.998H95.5398L95.1798 341.798C97.1532 341.051 98.6465 340.571 99.6598 340.358C99.4198 331.985 99.2998 327.758 99.2998 327.678C97.6465 328.318 96.3532 328.691 95.4198 328.798C94.7265 327.571 94.3665 326.398 94.3398 325.278L102.78 322.358C103.713 322.865 104.34 323.558 104.66 324.438ZM135.215 330.358L133.775 330.398C133.295 330.398 132.522 330.305 131.455 330.118C130.948 328.731 130.682 326.985 130.655 324.878C131.375 324.158 132.402 323.491 133.735 322.878C135.095 322.238 136.375 321.918 137.575 321.918C140.028 321.918 142.002 322.545 143.495 323.798C145.015 325.051 145.775 326.505 145.775 328.158C145.775 329.811 145.415 331.265 144.695 332.518C143.975 333.771 142.695 335.198 140.855 336.798L136.655 340.438H141.015C141.308 338.331 141.495 337.145 141.575 336.878C141.895 336.825 142.388 336.798 143.055 336.798C143.722 336.798 144.415 336.945 145.135 337.238C145.508 339.105 145.695 340.891 145.695 342.598L145.655 343.998H131.055C130.602 343.038 130.375 342.011 130.375 340.918C136.188 335.318 139.388 331.998 139.975 330.958C140.322 330.345 140.495 329.451 140.495 328.278C140.495 327.638 140.228 327.011 139.695 326.398C139.162 325.785 138.348 325.478 137.255 325.478C136.748 325.478 136.375 325.491 136.135 325.518C136.002 326.105 135.828 326.998 135.615 328.198C135.402 329.371 135.268 330.091 135.215 330.358Z"
            fill="#786552"
    />
    <path
            d="M101.172 454.758C101.172 452.491 99.9722 451.358 97.5722 451.358C97.3322 451.358 97.0255 451.385 96.6522 451.438L95.7322 456.318C93.8655 456.318 92.6255 456.238 92.0122 456.078C91.4789 454.585 91.2122 452.971 91.2122 451.238V450.878C91.8255 450.131 92.8255 449.465 94.2122 448.878C95.6255 448.265 96.8522 447.958 97.8922 447.958C100.372 447.958 102.412 448.571 104.012 449.798C105.612 450.998 106.412 452.478 106.412 454.238C106.412 456.558 105.252 458.451 102.932 459.918C104.212 460.318 105.292 461.105 106.172 462.278C107.052 463.425 107.492 464.878 107.492 466.638C107.492 468.398 106.919 469.998 105.772 471.438C104.626 472.905 103.292 473.971 101.772 474.638C100.252 475.331 98.5989 475.678 96.8122 475.678C95.0522 475.678 92.9989 475.278 90.6522 474.478C90.7055 473.118 90.9989 472.051 91.5322 471.278L92.7322 471.518C94.0122 471.838 95.0522 471.998 95.8522 471.998C96.6789 471.998 97.3055 471.958 97.7322 471.878C98.1589 471.798 98.7589 471.625 99.5322 471.358C100.306 471.091 100.946 470.598 101.452 469.878C101.959 469.158 102.212 468.198 102.212 466.998C102.212 465.798 101.799 464.798 100.972 463.998C100.146 463.171 99.0789 462.758 97.7722 462.758C97.6922 462.758 96.7722 462.838 95.0122 462.998C94.7455 461.878 94.6122 461.145 94.6122 460.798C94.6122 460.451 94.6389 460.011 94.6922 459.478L97.0522 459.158C98.1989 458.998 99.1722 458.531 99.9722 457.758C100.772 456.958 101.172 455.958 101.172 454.758ZM150.219 465.278L150.259 466.198C150.259 467.238 150.032 468.145 149.579 468.918H146.139L145.859 475.158C145.405 475.265 144.792 475.318 144.019 475.318C143.245 475.318 142.539 475.278 141.899 475.198L141.619 468.918H130.619C130.085 468.145 129.819 467.331 129.819 466.478C129.819 466.265 129.845 466.105 129.899 465.998L140.099 448.398H146.579C146.579 448.505 146.459 454.118 146.219 465.238L150.219 465.278ZM141.539 465.198L141.259 455.158L135.299 465.278C136.685 465.278 138.765 465.251 141.539 465.198Z"
            fill="#786552"
    />
    <rect
            id="3"
            x="91"
            y="489.948"
            width="29"
            height="160"
            stroke="#786552"
            stroke-width="8"
    />
    <rect
            id="4"
            x="120"
            y="489.948"
            width="29"
            height="160"
            stroke="#786552"
            stroke-width="8"
    />
    <rect
            id="5"
            x="231"
            y="146.052"
            width="29"
            height="160"
            stroke="#786552"
            stroke-width="8"
    />
    <rect
            id="6"
            x="260"
            y="146.052"
            width="29"
            height="160"
            stroke="#786552"
            stroke-width="8"
    />
    <path
            d="M242.174 341C242.174 340.013 241.814 339.067 241.094 338.16C240.374 337.227 239.294 336.76 237.854 336.76C236.441 336.76 235.281 336.88 234.374 337.12C234.054 336.933 233.627 336.587 233.094 336.08C232.561 335.547 232.174 335.12 231.934 334.8L231.494 322.4H247.254C247.441 323.12 247.534 324.2 247.534 325.64C247.534 327.053 247.241 328.64 246.654 330.4C245.881 330.587 245.134 330.68 244.414 330.68C243.721 330.68 243.214 330.667 242.894 330.64L242.054 326.08H236.494L236.014 333.24C236.547 333 237.174 332.88 237.894 332.88C240.641 332.88 242.921 333.587 244.734 335C246.547 336.413 247.454 338.4 247.454 340.96C247.454 343.52 246.401 345.6 244.294 347.2C242.214 348.827 239.641 349.64 236.574 349.64C235.827 349.64 234.827 349.52 233.574 349.28C232.347 349.067 231.361 348.8 230.614 348.48C230.614 348 230.707 347.4 230.894 346.68C231.081 345.96 231.281 345.493 231.494 345.28C232.854 345.76 234.534 346 236.534 346C237.707 346 238.747 345.8 239.654 345.4C241.334 344.627 242.174 343.16 242.174 341ZM285.322 315.12C285.482 315.707 285.562 316.32 285.562 316.96C285.562 317.573 285.496 318.067 285.362 318.44C279.842 318.867 276.642 321.893 275.762 327.52C277.602 326.533 279.269 326.04 280.762 326.04C283.509 326.04 285.696 326.773 287.322 328.24C288.949 329.68 289.762 331.933 289.762 335C289.762 338.067 288.922 340.413 287.242 342.04C285.562 343.667 283.349 344.48 280.602 344.48C278.709 344.48 277.069 344.08 275.682 343.28C274.296 342.48 273.229 341.387 272.482 340C271.016 337.36 270.282 334.107 270.282 330.24C270.282 327.76 270.736 325.533 271.642 323.56C272.576 321.56 273.789 319.973 275.282 318.8C278.322 316.347 281.669 315.12 285.322 315.12ZM275.722 332.16L275.842 334.48V334.56C276.002 336.4 276.482 337.92 277.282 339.12C278.082 340.293 279.122 340.88 280.402 340.88C283.122 340.88 284.482 338.72 284.482 334.4C284.482 332.773 284.162 331.587 283.522 330.84C282.909 330.093 281.896 329.72 280.482 329.72C279.096 329.72 277.509 330.307 275.722 331.48V332.16Z"
            fill="#786552"
    />
    <path
            d="M246.506 448.4C246.719 448.533 246.999 448.893 247.346 449.48C247.692 450.04 247.866 450.44 247.866 450.68C247.866 450.92 247.852 451.107 247.826 451.24C246.359 455.933 244.639 461.107 242.666 466.76C240.719 472.413 239.679 475.4 239.546 475.72C237.892 475.507 236.666 475.08 235.866 474.44L242.426 452.04H236.666L235.746 456.64C235.426 456.693 234.946 456.72 234.306 456.72L231.986 456.44C231.426 454.76 231.146 452.893 231.146 450.84C231.146 450.253 231.226 449.44 231.386 448.4H246.506ZM289.522 462.44C289.522 464.733 288.788 466.653 287.322 468.2C285.882 469.72 283.655 470.48 280.642 470.48C278.508 470.48 276.508 469.92 274.642 468.8C273.682 468.213 272.895 467.4 272.282 466.36C271.695 465.32 271.402 464.093 271.402 462.68C271.402 461.24 271.815 459.933 272.642 458.76C273.468 457.587 274.575 456.453 275.962 455.36C273.322 453.893 272.002 451.587 272.002 448.44C272.002 446.173 272.775 444.387 274.322 443.08C275.868 441.773 277.988 441.12 280.682 441.12C283.402 441.12 285.522 441.8 287.042 443.16C288.588 444.52 289.362 446.107 289.362 447.92C289.362 449.707 288.948 451.267 288.122 452.6C287.295 453.933 286.228 455.013 284.922 455.84C286.788 457.12 288.015 458.28 288.602 459.32C289.215 460.36 289.522 461.4 289.522 462.44ZM284.442 463.12C284.442 461.813 284.068 460.747 283.322 459.92C282.575 459.067 281.268 458.133 279.402 457.12C277.588 458.613 276.682 460.453 276.682 462.64C276.682 463.867 277.122 464.893 278.002 465.72C278.908 466.547 279.802 466.96 280.682 466.96C283.188 466.96 284.442 465.68 284.442 463.12ZM284.082 448.2C284.082 445.907 282.935 444.76 280.642 444.76C279.868 444.76 279.002 444.893 278.042 445.16C277.535 446.173 277.282 447.2 277.282 448.24C277.282 450.747 278.442 452.52 280.762 453.56C280.868 453.587 281.002 453.653 281.162 453.76C281.348 453.84 281.482 453.893 281.562 453.92C283.242 452.667 284.082 450.76 284.082 448.2Z"
            fill="#786552"
    />
    <rect
            id="7"
            x="231"
            y="489.948"
            width="29"
            height="160"
            stroke="#786552"
            stroke-width="8"
    />
    <rect
            id="8"
            x="260"
            y="489.948"
            width="29"
            height="160"
            stroke="#786552"
            stroke-width="8"
    />
    <rect
            id="9"
            x="371"
            y="146.052"
            width="29"
            height="160"
            stroke="#786552"
            stroke-width="8"
    />
    <rect
            id="10"
            x="400"
            y="146.052"
            width="29"
            height="160"
            stroke="#786552"
            stroke-width="8"
    />
    <path
            d="M364.92 347.24C364.92 346.973 364.933 346.8 364.96 346.72C367.973 346.507 370.213 345.787 371.68 344.56C373.173 343.333 374.187 341.507 374.72 339.08C373.493 339.587 372.36 339.84 371.32 339.84C368.573 339.84 366.387 339 364.76 337.32C363.133 335.64 362.32 333.507 362.32 330.92C362.32 328.333 363.133 326.187 364.76 324.48C366.413 322.773 368.693 321.92 371.6 321.92C374.507 321.92 376.773 322.907 378.4 324.88C380.027 326.827 380.84 329.44 380.84 332.72C380.84 337.733 379.56 341.76 377 344.8C374.44 347.867 370.627 349.48 365.56 349.64C365.133 349.027 364.92 348.227 364.92 347.24ZM372 336.28C372.587 336.28 373.733 335.813 375.44 334.88C375.573 333.92 375.64 333.027 375.64 332.2C375.64 331.347 375.587 330.6 375.48 329.96C375.373 329.293 375.187 328.6 374.92 327.88C374.68 327.16 374.28 326.587 373.72 326.16C373.16 325.733 372.493 325.52 371.72 325.52C369.027 325.52 367.64 327.387 367.56 331.12C367.56 332.827 367.96 334.12 368.76 335C369.56 335.853 370.64 336.28 372 336.28ZM414.039 324.44C414.039 324.76 413.905 330 413.639 340.16L416.959 340.52C416.959 341.693 416.652 342.853 416.039 344H404.919L404.559 341.8C406.532 341.053 408.025 340.573 409.039 340.36C408.799 331.987 408.679 327.76 408.679 327.68C407.025 328.32 405.732 328.693 404.799 328.8C404.105 327.573 403.745 326.4 403.719 325.28L412.159 322.36C413.092 322.867 413.719 323.56 414.039 324.44ZM428.253 321.92C431.559 321.92 433.973 322.88 435.493 324.8C437.013 326.693 437.773 329.4 437.773 332.92C437.773 336.413 437.013 339.213 435.493 341.32C433.973 343.427 431.546 344.48 428.213 344.48C424.879 344.48 422.493 343.547 421.053 341.68C419.613 339.787 418.893 336.933 418.893 333.12C418.893 325.653 422.013 321.92 428.253 321.92ZM426.213 340.4C426.773 340.693 427.453 340.84 428.253 340.84C429.053 340.84 429.719 340.693 430.253 340.4C430.813 340.107 431.226 339.747 431.493 339.32C431.786 338.893 432.013 338.293 432.173 337.52C432.386 336.507 432.493 335.027 432.493 333.08C432.493 328.067 431.079 325.56 428.253 325.56C427.479 325.56 426.813 325.72 426.253 326.04C425.693 326.36 425.266 326.733 424.973 327.16C424.679 327.587 424.453 328.16 424.293 328.88C424.079 329.84 423.973 330.987 423.973 332.32C423.973 333.627 423.986 334.613 424.013 335.28C424.066 335.92 424.159 336.64 424.293 337.44C424.453 338.213 424.679 338.827 424.973 339.28C425.266 339.707 425.679 340.08 426.213 340.4Z"
            fill="#786552"
    />
    <path
            d="M370.746 450.44C370.746 450.76 370.612 456 370.346 466.16L373.666 466.52C373.666 467.693 373.359 468.853 372.746 470H361.626L361.266 467.8C363.239 467.053 364.732 466.573 365.746 466.36C365.506 457.987 365.386 453.76 365.386 453.68C363.732 454.32 362.439 454.693 361.506 454.8C360.812 453.573 360.452 452.4 360.426 451.28L368.866 448.36C369.799 448.867 370.426 449.56 370.746 450.44ZM385.16 450.44C385.16 450.76 385.027 456 384.76 466.16L388.08 466.52C388.08 467.693 387.773 468.853 387.16 470H376.04L375.68 467.8C377.653 467.053 379.147 466.573 380.16 466.36C379.92 457.987 379.8 453.76 379.8 453.68C378.147 454.32 376.853 454.693 375.92 454.8C375.227 453.573 374.867 452.4 374.84 451.28L383.28 448.36C384.213 448.867 384.84 449.56 385.16 450.44ZM420.355 450.44C420.355 450.76 420.222 456 419.955 466.16L423.275 466.52C423.275 467.693 422.968 468.853 422.355 470H411.235L410.875 467.8C412.848 467.053 414.342 466.573 415.355 466.36C415.115 457.987 414.995 453.76 414.995 453.68C413.342 454.32 412.048 454.693 411.115 454.8C410.422 453.573 410.062 452.4 410.035 451.28L418.475 448.36C419.408 448.867 420.035 449.56 420.355 450.44ZM430.129 456.36L428.689 456.4C428.209 456.4 427.436 456.307 426.369 456.12C425.863 454.733 425.596 452.987 425.569 450.88C426.289 450.16 427.316 449.493 428.649 448.88C430.009 448.24 431.289 447.92 432.489 447.92C434.943 447.92 436.916 448.547 438.409 449.8C439.929 451.053 440.689 452.507 440.689 454.16C440.689 455.813 440.329 457.267 439.609 458.52C438.889 459.773 437.609 461.2 435.769 462.8L431.569 466.44H435.929C436.223 464.333 436.409 463.147 436.489 462.88C436.809 462.827 437.303 462.8 437.969 462.8C438.636 462.8 439.329 462.947 440.049 463.24C440.423 465.107 440.609 466.893 440.609 468.6L440.569 470H425.969C425.516 469.04 425.289 468.013 425.289 466.92C431.103 461.32 434.303 458 434.889 456.96C435.236 456.347 435.409 455.453 435.409 454.28C435.409 453.64 435.143 453.013 434.609 452.4C434.076 451.787 433.263 451.48 432.169 451.48C431.663 451.48 431.289 451.493 431.049 451.52C430.916 452.107 430.743 453 430.529 454.2C430.316 455.373 430.183 456.093 430.129 456.36Z"
            fill="#786552"
    />
    <rect
            id="11"
            x="371"
            y="489.948"
            width="29"
            height="160"
            stroke="#786552"
            stroke-width="8"
    />
    <rect
            id="12"
            x="400"
            y="489.948"
            width="29"
            height="160"
            stroke="#786552"
            stroke-width="8"
    />
    <rect
            id="13"
            x="511"
            y="146.052"
            width="29"
            height="160"
            stroke="#786552"
            stroke-width="8"
    />
    <rect
            id="14"
            x="540"
            y="146.052"
            width="29"
            height="160"
            stroke="#786552"
            stroke-width="8"
    />
    <path
            d="M505.398 324.44C505.398 324.76 505.265 330 504.998 340.16L508.318 340.52C508.318 341.693 508.011 342.853 507.398 344H496.278L495.918 341.8C497.891 341.053 499.385 340.573 500.398 340.36C500.158 331.987 500.038 327.76 500.038 327.68C498.385 328.32 497.091 328.693 496.158 328.8C495.465 327.573 495.105 326.4 495.078 325.28L503.518 322.36C504.451 322.867 505.078 323.56 505.398 324.44ZM520.172 328.76C520.172 326.493 518.972 325.36 516.572 325.36C516.332 325.36 516.026 325.387 515.652 325.44L514.732 330.32C512.866 330.32 511.626 330.24 511.012 330.08C510.479 328.587 510.212 326.973 510.212 325.24V324.88C510.826 324.133 511.826 323.467 513.212 322.88C514.626 322.267 515.852 321.96 516.892 321.96C519.372 321.96 521.412 322.573 523.012 323.8C524.612 325 525.412 326.48 525.412 328.24C525.412 330.56 524.252 332.453 521.932 333.92C523.212 334.32 524.292 335.107 525.172 336.28C526.052 337.427 526.492 338.88 526.492 340.64C526.492 342.4 525.919 344 524.772 345.44C523.626 346.907 522.292 347.973 520.772 348.64C519.252 349.333 517.599 349.68 515.812 349.68C514.052 349.68 511.999 349.28 509.652 348.48C509.706 347.12 509.999 346.053 510.532 345.28L511.732 345.52C513.012 345.84 514.052 346 514.852 346C515.679 346 516.306 345.96 516.732 345.88C517.159 345.8 517.759 345.627 518.532 345.36C519.306 345.093 519.946 344.6 520.452 343.88C520.959 343.16 521.212 342.2 521.212 341C521.212 339.8 520.799 338.8 519.972 338C519.146 337.173 518.079 336.76 516.772 336.76C516.692 336.76 515.772 336.84 514.012 337C513.746 335.88 513.612 335.147 513.612 334.8C513.612 334.453 513.639 334.013 513.692 333.48L516.052 333.16C517.199 333 518.172 332.533 518.972 331.76C519.772 330.96 520.172 329.96 520.172 328.76ZM559.539 324.44C559.539 324.76 559.405 330 559.139 340.16L562.459 340.52C562.459 341.693 562.152 342.853 561.539 344H550.419L550.059 341.8C552.032 341.053 553.525 340.573 554.539 340.36C554.299 331.987 554.179 327.76 554.179 327.68C552.525 328.32 551.232 328.693 550.299 328.8C549.605 327.573 549.245 326.4 549.219 325.28L557.659 322.36C558.592 322.867 559.219 323.56 559.539 324.44ZM583.633 339.28L583.673 340.2C583.673 341.24 583.446 342.147 582.993 342.92H579.553L579.273 349.16C578.819 349.267 578.206 349.32 577.433 349.32C576.659 349.32 575.953 349.28 575.313 349.2L575.033 342.92H564.033C563.499 342.147 563.233 341.333 563.233 340.48C563.233 340.267 563.259 340.107 563.313 340L573.513 322.4H579.993C579.993 322.507 579.873 328.12 579.633 339.24L583.633 339.28ZM574.953 339.2L574.673 329.16L568.713 339.28C570.099 339.28 572.179 339.253 574.953 339.2Z"
            fill="#786552"
    />
    <path
            d="M506.32 450.44C506.32 450.76 506.187 456 505.92 466.16L509.24 466.52C509.24 467.693 508.933 468.853 508.32 470H497.2L496.84 467.8C498.813 467.053 500.307 466.573 501.32 466.36C501.08 457.987 500.96 453.76 500.96 453.68C499.307 454.32 498.013 454.693 497.08 454.8C496.387 453.573 496.027 452.4 496 451.28L504.44 448.36C505.373 448.867 506 449.56 506.32 450.44ZM522.174 467C522.174 466.013 521.814 465.067 521.094 464.16C520.374 463.227 519.294 462.76 517.854 462.76C516.441 462.76 515.281 462.88 514.374 463.12C514.054 462.933 513.627 462.587 513.094 462.08C512.561 461.547 512.174 461.12 511.934 460.8L511.494 448.4H527.254C527.441 449.12 527.534 450.2 527.534 451.64C527.534 453.053 527.241 454.64 526.654 456.4C525.881 456.587 525.134 456.68 524.414 456.68C523.721 456.68 523.214 456.667 522.894 456.64L522.054 452.08H516.494L516.014 459.24C516.547 459 517.174 458.88 517.894 458.88C520.641 458.88 522.921 459.587 524.734 461C526.547 462.413 527.454 464.4 527.454 466.96C527.454 469.52 526.401 471.6 524.294 473.2C522.214 474.827 519.641 475.64 516.574 475.64C515.827 475.64 514.827 475.52 513.574 475.28C512.347 475.067 511.361 474.8 510.614 474.48C510.614 474 510.707 473.4 510.894 472.68C511.081 471.96 511.281 471.493 511.494 471.28C512.854 471.76 514.534 472 516.534 472C517.707 472 518.747 471.8 519.654 471.4C521.334 470.627 522.174 469.16 522.174 467ZM559.562 450.44C559.562 450.76 559.429 456 559.162 466.16L562.482 466.52C562.482 467.693 562.176 468.853 561.562 470H550.442L550.082 467.8C552.056 467.053 553.549 466.573 554.562 466.36C554.322 457.987 554.202 453.76 554.202 453.68C552.549 454.32 551.256 454.693 550.322 454.8C549.629 453.573 549.269 452.4 549.242 451.28L557.682 448.36C558.616 448.867 559.242 449.56 559.562 450.44ZM579.736 441.12C579.896 441.707 579.976 442.32 579.976 442.96C579.976 443.573 579.91 444.067 579.776 444.44C574.256 444.867 571.056 447.893 570.176 453.52C572.016 452.533 573.683 452.04 575.176 452.04C577.923 452.04 580.11 452.773 581.736 454.24C583.363 455.68 584.176 457.933 584.176 461C584.176 464.067 583.336 466.413 581.656 468.04C579.976 469.667 577.763 470.48 575.016 470.48C573.123 470.48 571.483 470.08 570.096 469.28C568.71 468.48 567.643 467.387 566.896 466C565.43 463.36 564.696 460.107 564.696 456.24C564.696 453.76 565.15 451.533 566.056 449.56C566.99 447.56 568.203 445.973 569.696 444.8C572.736 442.347 576.083 441.12 579.736 441.12ZM570.136 458.16L570.256 460.48V460.56C570.416 462.4 570.896 463.92 571.696 465.12C572.496 466.293 573.536 466.88 574.816 466.88C577.536 466.88 578.896 464.72 578.896 460.4C578.896 458.773 578.576 457.587 577.936 456.84C577.323 456.093 576.31 455.72 574.896 455.72C573.51 455.72 571.923 456.307 570.136 457.48V458.16Z"
            fill="#786552"
    />
    <rect
            id="15"
            x="511"
            y="489.948"
            width="29"
            height="160"
            stroke="#786552"
            stroke-width="8"
    />
    <rect
            id="16"
            x="540"
            y="489.948"
            width="29"
            height="160"
            stroke="#786552"
            stroke-width="8"
    />
    <rect
            id="17"
            x="651"
            y="146.052"
            width="29"
            height="160"
            stroke="#786552"
            stroke-width="8"
    />
    <rect
            id="18"
            x="680"
            y="146.052"
            width="29"
            height="160"
            stroke="#786552"
            stroke-width="8"
    />
    <path
            d="M646.672 324.44C646.672 324.76 646.538 330 646.272 340.16L649.592 340.52C649.592 341.693 649.285 342.853 648.672 344H637.552L637.192 341.8C639.165 341.053 640.658 340.573 641.672 340.36C641.432 331.987 641.312 327.76 641.312 327.68C639.658 328.32 638.365 328.693 637.432 328.8C636.738 327.573 636.378 326.4 636.352 325.28L644.792 322.36C645.725 322.867 646.352 323.56 646.672 324.44ZM666.006 322.4C666.219 322.533 666.499 322.893 666.846 323.48C667.192 324.04 667.366 324.44 667.366 324.68C667.366 324.92 667.352 325.107 667.326 325.24C665.859 329.933 664.139 335.107 662.166 340.76C660.219 346.413 659.179 349.4 659.046 349.72C657.392 349.507 656.166 349.08 655.366 348.44L661.926 326.04H656.166L655.246 330.64C654.926 330.693 654.446 330.72 653.806 330.72L651.486 330.44C650.926 328.76 650.646 326.893 650.646 324.84C650.646 324.253 650.726 323.44 650.886 322.4H666.006ZM700.422 324.44C700.422 324.76 700.288 330 700.022 340.16L703.342 340.52C703.342 341.693 703.035 342.853 702.422 344H691.302L690.942 341.8C692.915 341.053 694.408 340.573 695.422 340.36C695.182 331.987 695.062 327.76 695.062 327.68C693.408 328.32 692.115 328.693 691.182 328.8C690.488 327.573 690.128 326.4 690.102 325.28L698.542 322.36C699.475 322.867 700.102 323.56 700.422 324.44ZM723.436 336.44C723.436 338.733 722.702 340.653 721.236 342.2C719.796 343.72 717.569 344.48 714.556 344.48C712.422 344.48 710.422 343.92 708.556 342.8C707.596 342.213 706.809 341.4 706.196 340.36C705.609 339.32 705.316 338.093 705.316 336.68C705.316 335.24 705.729 333.933 706.556 332.76C707.382 331.587 708.489 330.453 709.876 329.36C707.236 327.893 705.916 325.587 705.916 322.44C705.916 320.173 706.689 318.387 708.236 317.08C709.782 315.773 711.902 315.12 714.596 315.12C717.316 315.12 719.436 315.8 720.956 317.16C722.502 318.52 723.276 320.107 723.276 321.92C723.276 323.707 722.862 325.267 722.036 326.6C721.209 327.933 720.142 329.013 718.836 329.84C720.702 331.12 721.929 332.28 722.516 333.32C723.129 334.36 723.436 335.4 723.436 336.44ZM718.356 337.12C718.356 335.813 717.982 334.747 717.236 333.92C716.489 333.067 715.182 332.133 713.316 331.12C711.502 332.613 710.596 334.453 710.596 336.64C710.596 337.867 711.036 338.893 711.916 339.72C712.822 340.547 713.716 340.96 714.596 340.96C717.102 340.96 718.356 339.68 718.356 337.12ZM717.996 322.2C717.996 319.907 716.849 318.76 714.556 318.76C713.782 318.76 712.916 318.893 711.956 319.16C711.449 320.173 711.196 321.2 711.196 322.24C711.196 324.747 712.356 326.52 714.676 327.56C714.782 327.587 714.916 327.653 715.076 327.76C715.262 327.84 715.396 327.893 715.476 327.92C717.156 326.667 717.996 324.76 717.996 322.2Z"
            fill="#786552"
    />
    <path
            d="M643.644 450.44C643.644 450.76 643.511 456 643.244 466.16L646.564 466.52C646.564 467.693 646.258 468.853 645.644 470H634.524L634.164 467.8C636.138 467.053 637.631 466.573 638.644 466.36C638.404 457.987 638.284 453.76 638.284 453.68C636.631 454.32 635.338 454.693 634.404 454.8C633.711 453.573 633.351 452.4 633.324 451.28L641.764 448.36C642.698 448.867 643.324 449.56 643.644 450.44ZM650.658 473.24C650.658 472.973 650.672 472.8 650.698 472.72C653.712 472.507 655.952 471.787 657.418 470.56C658.912 469.333 659.925 467.507 660.458 465.08C659.232 465.587 658.098 465.84 657.058 465.84C654.312 465.84 652.125 465 650.498 463.32C648.872 461.64 648.058 459.507 648.058 456.92C648.058 454.333 648.872 452.187 650.498 450.48C652.152 448.773 654.432 447.92 657.338 447.92C660.245 447.92 662.512 448.907 664.138 450.88C665.765 452.827 666.578 455.44 666.578 458.72C666.578 463.733 665.298 467.76 662.738 470.8C660.178 473.867 656.365 475.48 651.298 475.64C650.872 475.027 650.658 474.227 650.658 473.24ZM657.738 462.28C658.325 462.28 659.472 461.813 661.178 460.88C661.312 459.92 661.378 459.027 661.378 458.2C661.378 457.347 661.325 456.6 661.218 455.96C661.112 455.293 660.925 454.6 660.658 453.88C660.418 453.16 660.018 452.587 659.458 452.16C658.898 451.733 658.232 451.52 657.458 451.52C654.765 451.52 653.378 453.387 653.298 457.12C653.298 458.827 653.698 460.12 654.498 461C655.298 461.853 656.378 462.28 657.738 462.28ZM695.137 456.36L693.697 456.4C693.217 456.4 692.444 456.307 691.377 456.12C690.87 454.733 690.604 452.987 690.577 450.88C691.297 450.16 692.324 449.493 693.657 448.88C695.017 448.24 696.297 447.92 697.497 447.92C699.95 447.92 701.924 448.547 703.417 449.8C704.937 451.053 705.697 452.507 705.697 454.16C705.697 455.813 705.337 457.267 704.617 458.52C703.897 459.773 702.617 461.2 700.777 462.8L696.577 466.44H700.937C701.23 464.333 701.417 463.147 701.497 462.88C701.817 462.827 702.31 462.8 702.977 462.8C703.644 462.8 704.337 462.947 705.057 463.24C705.43 465.107 705.617 466.893 705.617 468.6L705.577 470H690.977C690.524 469.04 690.297 468.013 690.297 466.92C696.11 461.32 699.31 458 699.897 456.96C700.244 456.347 700.417 455.453 700.417 454.28C700.417 453.64 700.15 453.013 699.617 452.4C699.084 451.787 698.27 451.48 697.177 451.48C696.67 451.48 696.297 451.493 696.057 451.52C695.924 452.107 695.75 453 695.537 454.2C695.324 455.373 695.19 456.093 695.137 456.36ZM717.702 447.92C721.009 447.92 723.422 448.88 724.942 450.8C726.462 452.693 727.222 455.4 727.222 458.92C727.222 462.413 726.462 465.213 724.942 467.32C723.422 469.427 720.995 470.48 717.662 470.48C714.329 470.48 711.942 469.547 710.502 467.68C709.062 465.787 708.342 462.933 708.342 459.12C708.342 451.653 711.462 447.92 717.702 447.92ZM715.662 466.4C716.222 466.693 716.902 466.84 717.702 466.84C718.502 466.84 719.169 466.693 719.702 466.4C720.262 466.107 720.675 465.747 720.942 465.32C721.235 464.893 721.462 464.293 721.622 463.52C721.835 462.507 721.942 461.027 721.942 459.08C721.942 454.067 720.529 451.56 717.702 451.56C716.929 451.56 716.262 451.72 715.702 452.04C715.142 452.36 714.715 452.733 714.422 453.16C714.129 453.587 713.902 454.16 713.742 454.88C713.529 455.84 713.422 456.987 713.422 458.32C713.422 459.627 713.435 460.613 713.462 461.28C713.515 461.92 713.609 462.64 713.742 463.44C713.902 464.213 714.129 464.827 714.422 465.28C714.715 465.707 715.129 466.08 715.662 466.4Z"
            fill="#786552"
    />
    <rect
            id="19"
            x="651"
            y="489.948"
            width="29"
            height="160"
            stroke="#786552"
            stroke-width="8"
    />
    <rect
            id="20"
            x="680"
            y="489.948"
            width="29"
            height="160"
            stroke="#786552"
            stroke-width="8"
    />
    <rect
            x="8"
            y="106"
            width="784"
            height="584"
            stroke="#786552"
            stroke-width="16"
    />

    <path
            d="M344.793 32.72C345.433 32.6133 345.913 32.56 346.233 32.56C346.58 32.56 347.313 32.6533 348.433 32.84C348.54 33.0533 348.687 33.7333 348.873 34.88C349.087 36.0267 349.193 36.96 349.193 37.68C349.193 38.3733 349.113 39.1467 348.953 40H329.553L329.193 37.8C330.5 37.2667 331.62 36.88 332.553 36.64C332.553 36.56 332.433 29.5067 332.193 15.48L328.873 14.44L329.193 12H339.593C339.567 12 339.567 12.0267 339.593 12.08C339.647 12.1333 339.7 12.2533 339.753 12.44C339.833 12.6 339.913 12.8 339.993 13.04C340.153 13.4667 340.26 14.1733 340.313 15.16C338.953 15.3733 338.06 15.5067 337.633 15.56C337.527 24.76 337.46 31.6267 337.433 36.16H343.913L344.793 32.72ZM359.345 19.52C359.852 19.52 360.172 19.5333 360.305 19.56C360.305 20.8667 360.078 22.08 359.625 23.2C359.518 28.96 359.452 33.28 359.425 36.16L362.545 36.52C362.545 37.6133 362.238 38.7733 361.625 40H351.665L351.305 37.8C352.958 37.1867 354.158 36.7867 354.905 36.6L354.465 23.64C352.892 23.48 351.732 23.28 350.985 23.04C350.985 22.3733 351.078 21.4133 351.265 20.16C352.838 19.7333 355.532 19.52 359.345 19.52ZM359.345 11.96C359.585 13.16 359.705 14.08 359.705 14.72C359.705 15.3333 359.652 16.0267 359.545 16.8C358.478 17.04 357.572 17.16 356.825 17.16C356.105 17.16 355.225 17.12 354.185 17.04C353.945 15.84 353.825 14.9333 353.825 14.32C353.825 13.68 353.878 12.9733 353.985 12.2C355.052 11.96 355.945 11.84 356.665 11.84C357.412 11.84 358.305 11.88 359.345 11.96ZM370.45 10.28C371.09 10.28 371.503 10.2933 371.69 10.32C371.69 11.7067 371.517 12.92 371.17 13.96L371.05 20.68C373.53 19.6933 375.237 19.2 376.17 19.2C378.81 19.2 380.757 20.1867 382.01 22.16C383.29 24.1067 383.93 26.64 383.93 29.76C383.93 32.88 383.223 35.4533 381.81 37.48C380.397 39.48 378.343 40.48 375.65 40.48C373.89 40.48 372.037 39.8133 370.09 38.48C369.983 39.0933 369.823 39.6533 369.61 40.16C369.13 40.2133 368.65 40.24 368.17 40.24C367.69 40.24 367.09 40.16 366.37 40L365.53 14.4C364.277 14.2667 363.223 14.0667 362.37 13.8C362.37 12.8133 362.463 11.8533 362.65 10.92C364.197 10.4933 366.797 10.28 370.45 10.28ZM375.49 23.4C373.757 23.4 372.263 23.7067 371.01 24.32C370.957 28.8 370.903 32.1867 370.85 34.48C371.49 35.0133 372.223 35.4933 373.05 35.92C373.877 36.3467 374.583 36.56 375.17 36.56C377.49 36.56 378.65 34.4267 378.65 30.16C378.65 28.3467 378.397 26.7733 377.89 25.44C377.41 24.08 376.61 23.4 375.49 23.4ZM396.302 23.52C396.248 23.3867 395.982 23.32 395.502 23.32C395.022 23.32 394.195 23.68 393.022 24.4C392.915 29.6267 392.848 33.5467 392.822 36.16L395.942 36.56C395.942 37.7067 395.635 38.8533 395.022 40H385.062L384.702 37.8C386.355 37.1867 387.555 36.7867 388.302 36.6L387.862 23.64C386.475 23.5333 385.315 23.3333 384.382 23.04L384.662 20.16C385.382 19.84 387.982 19.6267 392.462 19.52C392.702 19.76 392.822 20.2267 392.822 20.92C395.168 19.7733 396.648 19.2 397.262 19.2C397.902 19.2 398.675 19.36 399.582 19.68C400.515 19.9733 401.222 20.2933 401.702 20.64V21.32C401.702 23.5067 401.435 25.5333 400.902 27.4C400.448 27.5867 399.848 27.68 399.102 27.68C398.355 27.68 397.662 27.64 397.022 27.56C396.942 27.2133 396.702 25.8667 396.302 23.52ZM409.99 40.48C407.724 40.48 405.964 40.0133 404.71 39.08C403.484 38.1467 402.87 36.5733 402.87 34.36C402.87 32.2533 403.604 30.5333 405.07 29.2C405.924 28.4267 407.11 27.9733 408.63 27.84C410.15 27.7067 412.244 27.64 414.91 27.64V27C414.91 25.3733 414.644 24.1867 414.11 23.44C413.604 22.6667 412.697 22.28 411.39 22.28C410.724 22.28 410.124 22.4133 409.59 22.68L408.63 26.16L405.67 26.08C405.004 25.0667 404.644 23.4533 404.59 21.24C405.124 20.9733 406.377 20.5733 408.35 20.04C410.324 19.48 411.59 19.2 412.15 19.2C415.03 19.2 417.124 19.8 418.43 21C419.737 22.1733 420.39 24.0533 420.39 26.64C420.39 29.2 420.27 32.5867 420.03 36.8C421.55 36.9333 422.724 37.16 423.55 37.48C423.577 37.8 423.59 38.1867 423.59 38.64L423.55 39.52C421.63 40.16 419.697 40.48 417.75 40.48C417.244 40.48 416.87 40.4667 416.63 40.44C416.23 39.64 415.99 38.68 415.91 37.56H415.71C415.204 38.04 414.31 38.6533 413.03 39.4C411.777 40.12 410.764 40.48 409.99 40.48ZM407.99 34.6C407.99 35.48 408.257 36.1333 408.79 36.56C409.35 36.96 409.977 37.16 410.67 37.16C411.364 37.16 412.19 36.8533 413.15 36.24C414.11 35.6 414.884 35.0267 415.47 34.52L415.27 30.84C413.164 30.9467 411.577 31.1467 410.51 31.44C408.83 31.7867 407.99 32.84 407.99 34.6ZM435.833 23.52C435.78 23.3867 435.513 23.32 435.033 23.32C434.553 23.32 433.726 23.68 432.553 24.4C432.446 29.6267 432.38 33.5467 432.353 36.16L435.473 36.56C435.473 37.7067 435.166 38.8533 434.553 40H424.593L424.233 37.8C425.886 37.1867 427.086 36.7867 427.833 36.6L427.393 23.64C426.006 23.5333 424.846 23.3333 423.913 23.04L424.193 20.16C424.913 19.84 427.513 19.6267 431.993 19.52C432.233 19.76 432.353 20.2267 432.353 20.92C434.7 19.7733 436.18 19.2 436.793 19.2C437.433 19.2 438.206 19.36 439.113 19.68C440.046 19.9733 440.753 20.2933 441.233 20.64V21.32C441.233 23.5067 440.966 25.5333 440.433 27.4C439.98 27.5867 439.38 27.68 438.633 27.68C437.886 27.68 437.193 27.64 436.553 27.56C436.473 27.2133 436.233 25.8667 435.833 23.52ZM447.522 49.68C446.748 49.68 445.895 49.5467 444.962 49.28C444.028 49.0133 443.028 48.6133 441.962 48.08C442.122 45.0133 442.268 43.1867 442.402 42.6C443.415 42.3333 444.242 42.2 444.882 42.2C445.548 42.2 445.975 42.2133 446.162 42.24L447.442 46.24L447.802 46.2C448.415 46.12 449.042 45.3867 449.682 44C450.322 42.6133 450.788 41.28 451.082 40H449.402L443.482 23.52L440.362 23.16C440.362 22.0667 440.668 20.9067 441.282 19.68H451.242L451.602 21.88C450.508 22.3867 449.588 22.7333 448.842 22.92L451.882 32.4L452.242 34.12H453.122L456.522 22.92C455.615 22.76 454.495 22.4133 453.162 21.88L453.522 19.68H463.482C464.095 20.9067 464.402 22.0667 464.402 23.16C463.362 23.32 462.322 23.4267 461.282 23.48C458.882 30.52 457.002 35.96 455.642 39.8C454.308 43.64 453.095 46.24 452.002 47.6C450.908 48.9867 449.415 49.68 447.522 49.68ZM472.475 34.92C472.715 35.88 472.835 36.7067 472.835 37.4C472.835 38.0667 472.795 38.8267 472.715 39.68C471.782 39.92 470.915 40.04 470.115 40.04C469.315 40.04 468.409 40 467.395 39.92C467.129 38.8533 466.995 38.08 466.995 37.6C466.995 37.0933 467.049 36.28 467.155 35.16C468.035 34.92 468.875 34.8 469.675 34.8C470.502 34.8 471.435 34.84 472.475 34.92ZM472.475 21.96C472.715 22.92 472.835 23.7467 472.835 24.44C472.835 25.1067 472.795 25.8667 472.715 26.72C471.782 26.96 470.915 27.08 470.115 27.08C469.315 27.08 468.409 27.04 467.395 26.96C467.129 25.8933 466.995 25.12 466.995 24.64C466.995 24.1333 467.049 23.32 467.155 22.2C468.035 21.96 468.875 21.84 469.675 21.84C470.502 21.84 471.435 21.88 472.475 21.96Z"
            fill="#2B2621"
    />
    <rect id="A" x="893" y="106" width="96" height="97.33" />
    <rect id="B" x="893" y="203" width="96" height="97.33" />
    <rect id="C" x="893" y="300" width="96" height="97.33" />
    <rect id="D" x="893" y="397" width="96" height="97.33" />
    <rect id="E" x="893" y="494" width="96" height="97.33" />
    <rect id="F" x="893" y="591" width="96" height="97.33" />
    <rect id="G" x="989" y="106" width="96" height="97.33" />
    <rect id="H" x="989" y="203" width="96" height="97.33" />
    <rect id="I" x="989" y="300" width="96" height="97.33" />
    <rect id="J" x="989" y="397" width="96" height="97.33" />
    <rect id="K" x="989" y="494" width="96" height="97.33" />
    <rect id="L" x="989" y="591" width="96" height="97.33" />
    <rect id="M" x="1085" y="106" width="96" height="97.33" />
    <rect id="N" x="1085" y="203" width="96" height="97.33" />
    <rect id="O" x="1085" y="300" width="96" height="97.33" />
    <rect id="P" x="1085" y="397" width="96" height="97.33" />
    <rect id="Q" x="1085" y="494" width="96" height="97.33" />
    <rect id="R" x="1085" y="591" width="96" height="97.33" />
    <rect id="S" x="1181" y="106" width="96" height="97.33" />
    <rect id="T" x="1181" y="203" width="96" height="97.33" />
    <rect id="U" x="1181" y="300" width="96" height="97.33" />
    <rect id="V" x="1181" y="397" width="96" height="97.33" />
    <rect id="W" x="1181" y="494" width="96" height="97.33" />
    <rect id="X" x="1181" y="591" width="96" height="97.33" />
    <rect
            x="895.5"
            y="150.5"
            width="21"
            height="50"
            stroke="#786552"
            stroke-width="5"
    />
    <rect
            x="921.5"
            y="157.5"
            width="13"
            height="43"
            stroke="#786552"
            stroke-width="5"
    />
    <rect
            x="939.5"
            y="153.5"
            width="14"
            height="47"
            stroke="#786552"
            stroke-width="5"
    />
    <rect
            x="958.5"
            y="149.5"
            width="16"
            height="51"
            stroke="#786552"
            stroke-width="5"
    />
    <rect
            x="979.5"
            y="153.5"
            width="17"
            height="47"
            stroke="#786552"
            stroke-width="5"
    />
    <rect
            x="1001.5"
            y="146.5"
            width="16"
            height="54"
            stroke="#786552"
            stroke-width="5"
    />
    <rect
            x="1022.5"
            y="155.5"
            width="13"
            height="45"
            stroke="#786552"
            stroke-width="5"
    />
    <rect
            x="1040.5"
            y="153.5"
            width="14"
            height="47"
            stroke="#786552"
            stroke-width="5"
    />
    <rect
            x="1059.5"
            y="150.5"
            width="13"
            height="50"
            stroke="#786552"
            stroke-width="5"
    />
    <rect
            x="1077.5"
            y="146.5"
            width="11"
            height="54"
            stroke="#786552"
            stroke-width="5"
    />
    <rect
            x="1093.5"
            y="153.5"
            width="11"
            height="47"
            stroke="#786552"
            stroke-width="5"
    />
    <rect
            x="1109.5"
            y="150.5"
            width="11"
            height="50"
            stroke="#786552"
            stroke-width="5"
    />
    <rect
            x="1125.5"
            y="155.5"
            width="11"
            height="45"
            stroke="#786552"
            stroke-width="5"
    />
    <rect
            x="1141.5"
            y="149.5"
            width="10"
            height="51"
            stroke="#786552"
            stroke-width="5"
    />
    <rect
            x="1156.5"
            y="153.5"
            width="14"
            height="47"
            stroke="#786552"
            stroke-width="5"
    />
    <rect
            x="1175.5"
            y="149.5"
            width="14"
            height="51"
            stroke="#786552"
            stroke-width="5"
    />
    <rect
            x="1194.5"
            y="146.5"
            width="15"
            height="54"
            stroke="#786552"
            stroke-width="5"
    />
    <rect
            x="1214.5"
            y="153.5"
            width="13"
            height="47"
            stroke="#786552"
            stroke-width="5"
    />
    <rect
            x="1232.5"
            y="149.5"
            width="17"
            height="51"
            stroke="#786552"
            stroke-width="5"
    />
    <rect
            x="1254.5"
            y="152.5"
            width="18"
            height="48"
            stroke="#786552"
            stroke-width="5"
    />
    <rect
            x="-2.5"
            y="2.5"
            width="21"
            height="50"
            transform="matrix(-1 0 0 1 1270 246)"
            stroke="#786552"
            stroke-width="5"
    />
    <rect
            x="-2.5"
            y="2.5"
            width="13"
            height="43"
            transform="matrix(-1 0 0 1 1244 253)"
            stroke="#786552"
            stroke-width="5"
    />
    <rect
            x="-2.5"
            y="2.5"
            width="14"
            height="47"
            transform="matrix(-1 0 0 1 1226 249)"
            stroke="#786552"
            stroke-width="5"
    />
    <rect
            x="-2.5"
            y="2.5"
            width="16"
            height="51"
            transform="matrix(-1 0 0 1 1207 245)"
            stroke="#786552"
            stroke-width="5"
    />
    <rect
            x="-2.5"
            y="2.5"
            width="17"
            height="47"
            transform="matrix(-1 0 0 1 1186 249)"
            stroke="#786552"
            stroke-width="5"
    />
    <rect
            x="-2.5"
            y="2.5"
            width="16"
            height="54"
            transform="matrix(-1 0 0 1 1164 242)"
            stroke="#786552"
            stroke-width="5"
    />
    <rect
            x="-2.5"
            y="2.5"
            width="13"
            height="45"
            transform="matrix(-1 0 0 1 1143 251)"
            stroke="#786552"
            stroke-width="5"
    />
    <rect
            x="-2.5"
            y="2.5"
            width="14"
            height="47"
            transform="matrix(-1 0 0 1 1125 249)"
            stroke="#786552"
            stroke-width="5"
    />
    <rect
            x="-2.5"
            y="2.5"
            width="13"
            height="50"
            transform="matrix(-1 0 0 1 1106 246)"
            stroke="#786552"
            stroke-width="5"
    />
    <rect
            x="-2.5"
            y="2.5"
            width="11"
            height="54"
            transform="matrix(-1 0 0 1 1088 242)"
            stroke="#786552"
            stroke-width="5"
    />
    <rect
            x="-2.5"
            y="2.5"
            width="11"
            height="47"
            transform="matrix(-1 0 0 1 1072 249)"
            stroke="#786552"
            stroke-width="5"
    />
    <rect
            x="-2.5"
            y="2.5"
            width="11"
            height="50"
            transform="matrix(-1 0 0 1 1056 246)"
            stroke="#786552"
            stroke-width="5"
    />
    <rect
            x="-2.5"
            y="2.5"
            width="11"
            height="45"
            transform="matrix(-1 0 0 1 1040 251)"
            stroke="#786552"
            stroke-width="5"
    />
    <rect
            x="-2.5"
            y="2.5"
            width="10"
            height="51"
            transform="matrix(-1 0 0 1 1024 245)"
            stroke="#786552"
            stroke-width="5"
    />
    <rect
            x="-2.5"
            y="2.5"
            width="14"
            height="47"
            transform="matrix(-1 0 0 1 1009 249)"
            stroke="#786552"
            stroke-width="5"
    />
    <rect
            x="-2.5"
            y="2.5"
            width="14"
            height="51"
            transform="matrix(-1 0 0 1 990 245)"
            stroke="#786552"
            stroke-width="5"
    />
    <rect
            x="-2.5"
            y="2.5"
            width="15"
            height="54"
            transform="matrix(-1 0 0 1 971 242)"
            stroke="#786552"
            stroke-width="5"
    />
    <rect
            x="-2.5"
            y="2.5"
            width="13"
            height="47"
            transform="matrix(-1 0 0 1 951 249)"
            stroke="#786552"
            stroke-width="5"
    />
    <rect
            x="-2.5"
            y="2.5"
            width="17"
            height="51"
            transform="matrix(-1 0 0 1 933 245)"
            stroke="#786552"
            stroke-width="5"
    />
    <rect
            x="-2.5"
            y="2.5"
            width="18"
            height="48"
            transform="matrix(-1 0 0 1 911 248)"
            stroke="#786552"
            stroke-width="5"
    />
    <rect
            x="895.5"
            y="346.5"
            width="21"
            height="50"
            stroke="#786552"
            stroke-width="5"
    />
    <rect
            x="921.5"
            y="353.5"
            width="13"
            height="43"
            stroke="#786552"
            stroke-width="5"
    />
    <rect
            x="939.5"
            y="349.5"
            width="14"
            height="47"
            stroke="#786552"
            stroke-width="5"
    />
    <rect
            x="958.5"
            y="345.5"
            width="16"
            height="51"
            stroke="#786552"
            stroke-width="5"
    />
    <rect
            x="979.5"
            y="349.5"
            width="17"
            height="47"
            stroke="#786552"
            stroke-width="5"
    />
    <rect
            x="1001.5"
            y="342.5"
            width="16"
            height="54"
            stroke="#786552"
            stroke-width="5"
    />
    <rect
            x="1022.5"
            y="351.5"
            width="13"
            height="45"
            stroke="#786552"
            stroke-width="5"
    />
    <rect
            x="1040.5"
            y="349.5"
            width="14"
            height="47"
            stroke="#786552"
            stroke-width="5"
    />
    <rect
            x="1059.5"
            y="346.5"
            width="13"
            height="50"
            stroke="#786552"
            stroke-width="5"
    />
    <rect
            x="1077.5"
            y="342.5"
            width="11"
            height="54"
            stroke="#786552"
            stroke-width="5"
    />
    <rect
            x="1093.5"
            y="349.5"
            width="11"
            height="47"
            stroke="#786552"
            stroke-width="5"
    />
    <rect
            x="1109.5"
            y="346.5"
            width="11"
            height="50"
            stroke="#786552"
            stroke-width="5"
    />
    <rect
            x="1125.5"
            y="351.5"
            width="11"
            height="45"
            stroke="#786552"
            stroke-width="5"
    />
    <rect
            x="1141.5"
            y="345.5"
            width="10"
            height="51"
            stroke="#786552"
            stroke-width="5"
    />
    <rect
            x="1156.5"
            y="349.5"
            width="14"
            height="47"
            stroke="#786552"
            stroke-width="5"
    />
    <rect
            x="1175.5"
            y="345.5"
            width="14"
            height="51"
            stroke="#786552"
            stroke-width="5"
    />
    <rect
            x="1194.5"
            y="342.5"
            width="15"
            height="54"
            stroke="#786552"
            stroke-width="5"
    />
    <rect
            x="1214.5"
            y="349.5"
            width="13"
            height="47"
            stroke="#786552"
            stroke-width="5"
    />
    <rect
            x="1232.5"
            y="345.5"
            width="17"
            height="51"
            stroke="#786552"
            stroke-width="5"
    />
    <rect
            x="1254.5"
            y="348.5"
            width="18"
            height="48"
            stroke="#786552"
            stroke-width="5"
    />
    <rect
            x="-2.5"
            y="2.5"
            width="21"
            height="50"
            transform="matrix(-1 0 0 1 1270 442)"
            stroke="#786552"
            stroke-width="5"
    />
    <rect
            x="-2.5"
            y="2.5"
            width="13"
            height="43"
            transform="matrix(-1 0 0 1 1244 449)"
            stroke="#786552"
            stroke-width="5"
    />
    <rect
            x="-2.5"
            y="2.5"
            width="14"
            height="47"
            transform="matrix(-1 0 0 1 1226 445)"
            stroke="#786552"
            stroke-width="5"
    />
    <rect
            x="-2.5"
            y="2.5"
            width="16"
            height="51"
            transform="matrix(-1 0 0 1 1207 441)"
            stroke="#786552"
            stroke-width="5"
    />
    <rect
            x="-2.5"
            y="2.5"
            width="17"
            height="47"
            transform="matrix(-1 0 0 1 1186 445)"
            stroke="#786552"
            stroke-width="5"
    />
    <rect
            x="-2.5"
            y="2.5"
            width="16"
            height="54"
            transform="matrix(-1 0 0 1 1164 438)"
            stroke="#786552"
            stroke-width="5"
    />
    <rect
            x="-2.5"
            y="2.5"
            width="13"
            height="45"
            transform="matrix(-1 0 0 1 1143 447)"
            stroke="#786552"
            stroke-width="5"
    />
    <rect
            x="-2.5"
            y="2.5"
            width="14"
            height="47"
            transform="matrix(-1 0 0 1 1125 445)"
            stroke="#786552"
            stroke-width="5"
    />
    <rect
            x="-2.5"
            y="2.5"
            width="13"
            height="50"
            transform="matrix(-1 0 0 1 1106 442)"
            stroke="#786552"
            stroke-width="5"
    />
    <rect
            x="-2.5"
            y="2.5"
            width="11"
            height="54"
            transform="matrix(-1 0 0 1 1088 438)"
            stroke="#786552"
            stroke-width="5"
    />
    <rect
            x="-2.5"
            y="2.5"
            width="11"
            height="47"
            transform="matrix(-1 0 0 1 1072 445)"
            stroke="#786552"
            stroke-width="5"
    />
    <rect
            x="-2.5"
            y="2.5"
            width="11"
            height="50"
            transform="matrix(-1 0 0 1 1056 442)"
            stroke="#786552"
            stroke-width="5"
    />
    <rect
            x="-2.5"
            y="2.5"
            width="11"
            height="45"
            transform="matrix(-1 0 0 1 1040 447)"
            stroke="#786552"
            stroke-width="5"
    />
    <rect
            x="-2.5"
            y="2.5"
            width="10"
            height="51"
            transform="matrix(-1 0 0 1 1024 441)"
            stroke="#786552"
            stroke-width="5"
    />
    <rect
            x="-2.5"
            y="2.5"
            width="14"
            height="47"
            transform="matrix(-1 0 0 1 1009 445)"
            stroke="#786552"
            stroke-width="5"
    />
    <rect
            x="-2.5"
            y="2.5"
            width="14"
            height="51"
            transform="matrix(-1 0 0 1 990 441)"
            stroke="#786552"
            stroke-width="5"
    />
    <rect
            x="-2.5"
            y="2.5"
            width="15"
            height="54"
            transform="matrix(-1 0 0 1 971 438)"
            stroke="#786552"
            stroke-width="5"
    />
    <rect
            x="-2.5"
            y="2.5"
            width="13"
            height="47"
            transform="matrix(-1 0 0 1 951 445)"
            stroke="#786552"
            stroke-width="5"
    />
    <rect
            x="-2.5"
            y="2.5"
            width="17"
            height="51"
            transform="matrix(-1 0 0 1 933 441)"
            stroke="#786552"
            stroke-width="5"
    />
    <rect
            x="-2.5"
            y="2.5"
            width="18"
            height="48"
            transform="matrix(-1 0 0 1 911 444)"
            stroke="#786552"
            stroke-width="5"
    />
    <rect
            x="895.5"
            y="542.5"
            width="21"
            height="50"
            stroke="#786552"
            stroke-width="5"
    />
    <rect
            x="921.5"
            y="549.5"
            width="13"
            height="43"
            stroke="#786552"
            stroke-width="5"
    />
    <rect
            x="939.5"
            y="545.5"
            width="14"
            height="47"
            stroke="#786552"
            stroke-width="5"
    />
    <rect
            x="958.5"
            y="541.5"
            width="16"
            height="51"
            stroke="#786552"
            stroke-width="5"
    />
    <rect
            x="979.5"
            y="545.5"
            width="17"
            height="47"
            stroke="#786552"
            stroke-width="5"
    />
    <rect
            x="1001.5"
            y="538.5"
            width="16"
            height="54"
            stroke="#786552"
            stroke-width="5"
    />
    <rect
            x="1022.5"
            y="547.5"
            width="13"
            height="45"
            stroke="#786552"
            stroke-width="5"
    />
    <rect
            x="1040.5"
            y="545.5"
            width="14"
            height="47"
            stroke="#786552"
            stroke-width="5"
    />
    <rect
            x="1059.5"
            y="542.5"
            width="13"
            height="50"
            stroke="#786552"
            stroke-width="5"
    />
    <rect
            x="1077.5"
            y="538.5"
            width="11"
            height="54"
            stroke="#786552"
            stroke-width="5"
    />
    <rect
            x="1093.5"
            y="545.5"
            width="11"
            height="47"
            stroke="#786552"
            stroke-width="5"
    />
    <rect
            x="1109.5"
            y="542.5"
            width="11"
            height="50"
            stroke="#786552"
            stroke-width="5"
    />
    <rect
            x="1125.5"
            y="547.5"
            width="11"
            height="45"
            stroke="#786552"
            stroke-width="5"
    />
    <rect
            x="1141.5"
            y="541.5"
            width="10"
            height="51"
            stroke="#786552"
            stroke-width="5"
    />
    <rect
            x="1156.5"
            y="545.5"
            width="14"
            height="47"
            stroke="#786552"
            stroke-width="5"
    />
    <rect
            x="1175.5"
            y="541.5"
            width="14"
            height="51"
            stroke="#786552"
            stroke-width="5"
    />
    <rect
            x="1194.5"
            y="538.5"
            width="15"
            height="54"
            stroke="#786552"
            stroke-width="5"
    />
    <rect
            x="1214.5"
            y="545.5"
            width="13"
            height="47"
            stroke="#786552"
            stroke-width="5"
    />
    <rect
            x="1232.5"
            y="541.5"
            width="17"
            height="51"
            stroke="#786552"
            stroke-width="5"
    />
    <rect
            x="1254.5"
            y="544.5"
            width="18"
            height="48"
            stroke="#786552"
            stroke-width="5"
    />
    <rect
            x="-2.5"
            y="2.5"
            width="21"
            height="50"
            transform="matrix(-1 0 0 1 1270 638)"
            stroke="#786552"
            stroke-width="5"
    />
    <rect
            x="-2.5"
            y="2.5"
            width="13"
            height="43"
            transform="matrix(-1 0 0 1 1244 645)"
            stroke="#786552"
            stroke-width="5"
    />
    <rect
            x="-2.5"
            y="2.5"
            width="14"
            height="47"
            transform="matrix(-1 0 0 1 1226 641)"
            stroke="#786552"
            stroke-width="5"
    />
    <rect
            x="-2.5"
            y="2.5"
            width="16"
            height="51"
            transform="matrix(-1 0 0 1 1207 637)"
            stroke="#786552"
            stroke-width="5"
    />
    <rect
            x="-2.5"
            y="2.5"
            width="17"
            height="47"
            transform="matrix(-1 0 0 1 1186 641)"
            stroke="#786552"
            stroke-width="5"
    />
    <rect
            x="-2.5"
            y="2.5"
            width="16"
            height="54"
            transform="matrix(-1 0 0 1 1164 634)"
            stroke="#786552"
            stroke-width="5"
    />
    <rect
            x="-2.5"
            y="2.5"
            width="13"
            height="45"
            transform="matrix(-1 0 0 1 1143 643)"
            stroke="#786552"
            stroke-width="5"
    />
    <rect
            x="-2.5"
            y="2.5"
            width="14"
            height="47"
            transform="matrix(-1 0 0 1 1125 641)"
            stroke="#786552"
            stroke-width="5"
    />
    <rect
            x="-2.5"
            y="2.5"
            width="13"
            height="50"
            transform="matrix(-1 0 0 1 1106 638)"
            stroke="#786552"
            stroke-width="5"
    />
    <rect
            x="-2.5"
            y="2.5"
            width="11"
            height="54"
            transform="matrix(-1 0 0 1 1088 634)"
            stroke="#786552"
            stroke-width="5"
    />
    <rect
            x="-2.5"
            y="2.5"
            width="11"
            height="47"
            transform="matrix(-1 0 0 1 1072 641)"
            stroke="#786552"
            stroke-width="5"
    />
    <rect
            x="-2.5"
            y="2.5"
            width="11"
            height="50"
            transform="matrix(-1 0 0 1 1056 638)"
            stroke="#786552"
            stroke-width="5"
    />
    <rect
            x="-2.5"
            y="2.5"
            width="11"
            height="45"
            transform="matrix(-1 0 0 1 1040 643)"
            stroke="#786552"
            stroke-width="5"
    />
    <rect
            x="-2.5"
            y="2.5"
            width="10"
            height="51"
            transform="matrix(-1 0 0 1 1024 637)"
            stroke="#786552"
            stroke-width="5"
    />
    <rect
            x="-2.5"
            y="2.5"
            width="14"
            height="47"
            transform="matrix(-1 0 0 1 1009 641)"
            stroke="#786552"
            stroke-width="5"
    />
    <rect
            x="-2.5"
            y="2.5"
            width="14"
            height="51"
            transform="matrix(-1 0 0 1 990 637)"
            stroke="#786552"
            stroke-width="5"
    />
    <rect
            x="-2.5"
            y="2.5"
            width="15"
            height="54"
            transform="matrix(-1 0 0 1 971 634)"
            stroke="#786552"
            stroke-width="5"
    />
    <rect
            x="-2.5"
            y="2.5"
            width="13"
            height="47"
            transform="matrix(-1 0 0 1 951 641)"
            stroke="#786552"
            stroke-width="5"
    />
    <rect
            x="-2.5"
            y="2.5"
            width="17"
            height="51"
            transform="matrix(-1 0 0 1 933 637)"
            stroke="#786552"
            stroke-width="5"
    />
    <rect
            x="-2.5"
            y="2.5"
            width="18"
            height="48"
            transform="matrix(-1 0 0 1 911 640)"
            stroke="#786552"
            stroke-width="5"
    />
    <rect
            x="893"
            y="106"
            width="384"
            height="97.3333"
            stroke="#786552"
            stroke-width="16"
    />
    <rect
            x="893"
            y="203.333"
            width="384"
            height="97.3333"
            stroke="#786552"
            stroke-width="16"
    />
    <rect
            x="893"
            y="300.667"
            width="384"
            height="97.3333"
            stroke="#786552"
            stroke-width="16"
    />
    <rect
            x="893"
            y="398"
            width="384"
            height="97.3333"
            stroke="#786552"
            stroke-width="16"
    />
    <rect
            x="893"
            y="495.333"
            width="384"
            height="97.3333"
            stroke="#786552"
            stroke-width="16"
    />
    <rect
            x="893"
            y="592.667"
            width="384"
            height="97.3333"
            stroke="#786552"
            stroke-width="16"
    />
    <path
            d="M1328.2 138.44L1328.24 138.84C1328.24 139.933 1328.07 140.867 1327.72 141.64C1327.37 141.907 1326.83 142.12 1326.08 142.28L1332.76 162.04L1336.56 162.52C1336.56 163.613 1336.25 164.773 1335.64 166H1325.92L1325.56 163.8C1326.68 163.373 1327.41 163.093 1327.76 162.96L1326.16 158.44H1317.16C1316.36 160.813 1315.93 162.053 1315.88 162.16L1318.64 162.52C1318.64 163.08 1318.53 163.733 1318.32 164.48C1318.11 165.2 1317.91 165.707 1317.72 166H1308L1307.64 163.8C1308.84 163.293 1309.92 162.92 1310.88 162.68L1317.6 142.12C1315.81 141.853 1314.47 141.507 1313.56 141.08C1313.56 140.307 1313.68 139.627 1313.92 139.04C1314.48 138.853 1315.79 138.64 1317.84 138.4C1319.92 138.133 1321.89 138 1323.76 138C1325.65 138 1327.13 138.147 1328.2 138.44ZM1323.04 149.44L1321.88 144.16H1321.48L1320.2 149.68L1318.32 154.68H1325L1323.04 149.44ZM1359.8 154.04C1359.91 154.547 1359.96 155.107 1359.96 155.72C1359.96 156.307 1359.92 156.92 1359.84 157.56C1358 157.747 1356.5 157.84 1355.32 157.84L1349.52 157.6C1349.39 157.12 1349.32 156.573 1349.32 155.96C1349.32 155.32 1349.36 154.68 1349.44 154.04C1351.28 153.853 1352.79 153.76 1353.96 153.76L1359.8 154.04ZM1396.28 151.4C1396.28 157.267 1394.88 161.347 1392.08 163.64C1390.93 164.547 1389.69 165.173 1388.36 165.52C1387.03 165.84 1385.28 166 1383.12 166H1372.76L1372.4 163.8C1374.43 163.053 1375.55 162.667 1375.76 162.64C1375.76 162.56 1375.64 155.507 1375.4 141.48C1374.23 141.187 1373.12 140.84 1372.08 140.44C1372.24 139.053 1372.35 138.24 1372.4 138H1383C1385.61 138 1387.69 138.267 1389.24 138.8C1390.81 139.333 1392.2 140.28 1393.4 141.64C1395.32 143.88 1396.28 147.133 1396.28 151.4ZM1383.48 162.12C1386.52 162.12 1388.53 161.387 1389.52 159.92C1390.53 158.453 1391.04 155.92 1391.04 152.32C1391.04 148.72 1390.48 146.107 1389.36 144.48C1388.24 142.827 1386.37 142 1383.76 142H1380.84C1380.73 150.987 1380.67 157.693 1380.64 162.12H1383.48Z"
            fill="#786552"
    />
    <path
            d="M1316.96 242C1316.96 245.04 1316.93 247.653 1316.88 249.84H1320.96L1321.36 247.08C1322.72 247.08 1324.04 247.413 1325.32 248.08V256.08L1322.68 256.2C1322.04 255.24 1321.67 254.4 1321.56 253.68H1316.84C1316.79 257.413 1316.76 260.227 1316.76 262.12H1323.6L1324.48 258.64C1326.13 258.64 1327.39 258.72 1328.24 258.88C1328.64 260.4 1328.84 261.787 1328.84 263.04C1328.84 264.267 1328.8 265.253 1328.72 266H1308.88L1308.52 263.8C1310.25 263.133 1311.37 262.747 1311.88 262.64C1311.85 261.067 1311.83 258.853 1311.8 256C1311.69 249.6 1311.6 244.76 1311.52 241.48L1308.2 240.44L1308.52 238H1328.16C1328.24 238.72 1328.28 239.627 1328.28 240.72C1328.28 241.787 1328.08 243.28 1327.68 245.2C1326.85 245.467 1325.6 245.6 1323.92 245.6L1323 242H1316.96ZM1353.58 254.04C1353.69 254.547 1353.74 255.107 1353.74 255.72C1353.74 256.307 1353.7 256.92 1353.62 257.56C1351.78 257.747 1350.27 257.84 1349.1 257.84L1343.3 257.6C1343.17 257.12 1343.1 256.573 1343.1 255.96C1343.1 255.32 1343.14 254.68 1343.22 254.04C1345.06 253.853 1346.57 253.76 1347.74 253.76L1353.58 254.04ZM1385.14 262.64L1384.98 253.2H1374.5C1374.44 257.2 1374.42 260.187 1374.42 262.16L1377.18 262.52C1377.18 263.613 1376.87 264.773 1376.26 266H1366.54L1366.18 263.8C1367.67 263.187 1368.79 262.8 1369.54 262.64C1369.54 262.56 1369.42 255.507 1369.18 241.48L1365.86 240.44L1366.18 238H1376.54C1376.96 238.72 1377.22 239.773 1377.3 241.16C1375.94 241.373 1375.04 241.507 1374.62 241.56C1374.56 245.027 1374.54 247.627 1374.54 249.36H1384.9L1384.78 241.48L1381.46 240.44L1381.78 238H1392.14C1392.56 238.72 1392.82 239.773 1392.9 241.16C1391.54 241.373 1390.64 241.507 1390.22 241.56L1390.02 262.16L1392.78 262.52C1392.78 263.613 1392.47 264.773 1391.86 266H1382.14L1381.78 263.8C1383.27 263.187 1384.39 262.8 1385.14 262.64Z"
            fill="#786552"
    />
    <path
            d="M1319.92 335C1319.89 335 1319.89 335.027 1319.92 335.08C1319.97 335.133 1320.03 335.253 1320.08 335.44C1320.16 335.6 1320.24 335.8 1320.32 336.04C1320.48 336.467 1320.59 337.173 1320.64 338.16C1319.28 338.373 1318.39 338.507 1317.96 338.56L1317.76 359.16L1320.52 359.52C1320.52 360.613 1320.21 361.773 1319.6 363H1309.88L1309.52 360.8C1311.01 360.187 1312.13 359.8 1312.88 359.64C1312.85 358.067 1312.81 355.853 1312.76 353C1312.68 346.6 1312.6 341.76 1312.52 338.48L1309.2 337.44L1309.52 335H1319.92ZM1344.99 351.04C1345.09 351.547 1345.15 352.107 1345.15 352.72C1345.15 353.307 1345.11 353.92 1345.03 354.56C1343.19 354.747 1341.68 354.84 1340.51 354.84L1334.71 354.6C1334.57 354.12 1334.51 353.573 1334.51 352.96C1334.51 352.32 1334.55 351.68 1334.63 351.04C1336.47 350.853 1337.97 350.76 1339.15 350.76L1344.99 351.04ZM1374.74 355.72C1375.38 355.613 1375.86 355.56 1376.18 355.56C1376.53 355.56 1377.26 355.653 1378.38 355.84C1378.49 356.053 1378.64 356.733 1378.82 357.88C1379.04 359.027 1379.14 359.96 1379.14 360.68C1379.14 361.373 1379.06 362.147 1378.9 363H1359.5L1359.14 360.8C1360.45 360.267 1361.57 359.88 1362.5 359.64C1362.5 359.56 1362.38 352.507 1362.14 338.48L1358.82 337.44L1359.14 335H1369.54C1369.52 335 1369.52 335.027 1369.54 335.08C1369.6 335.133 1369.65 335.253 1369.7 335.44C1369.78 335.6 1369.86 335.8 1369.94 336.04C1370.1 336.467 1370.21 337.173 1370.26 338.16C1368.9 338.373 1368.01 338.507 1367.58 338.56C1367.48 347.76 1367.41 354.627 1367.38 359.16H1373.86L1374.74 355.72Z"
            fill="#786552"
    />
    <path
            d="M1327.76 452.84L1331.44 433H1341.84C1342.05 434.147 1342.16 434.96 1342.16 435.44C1340.88 435.893 1339.77 436.24 1338.84 436.48L1341.68 457.16L1344.44 457.52C1344.44 458.613 1344.13 459.773 1343.52 461H1333.8L1333.44 458.8C1334.93 458.187 1336.05 457.8 1336.8 457.64L1333.72 441.32L1329.64 459.04H1325.56L1319.24 439.48L1315.84 457.16L1318.6 457.52C1318.6 458.613 1318.29 459.773 1317.68 461H1307.96L1307.6 458.8C1309.09 458.187 1310.21 457.8 1310.96 457.64L1313.8 436.48L1310.48 435.44L1310.8 433H1322L1327.36 452.84H1327.76ZM1368.66 449.04C1368.76 449.547 1368.82 450.107 1368.82 450.72C1368.82 451.307 1368.78 451.92 1368.7 452.56C1366.86 452.747 1365.35 452.84 1364.18 452.84L1358.38 452.6C1358.24 452.12 1358.18 451.573 1358.18 450.96C1358.18 450.32 1358.22 449.68 1358.3 449.04C1360.14 448.853 1361.64 448.76 1362.82 448.76L1368.66 449.04ZM1392.37 433C1395.76 433 1398.28 433.587 1399.93 434.76C1401.59 435.933 1402.41 438.067 1402.41 441.16C1402.41 443.747 1401.61 445.907 1400.01 447.64C1398.41 449.347 1395.85 450.2 1392.33 450.2C1391.19 450.2 1390.28 450.187 1389.61 450.16L1389.53 457.2L1392.45 457.52C1392.45 458.693 1392.15 459.853 1391.53 461H1381.65L1381.29 458.8C1382.68 458.24 1383.8 457.853 1384.65 457.64C1384.65 457.56 1384.53 450.507 1384.29 436.48C1383.87 436.373 1382.76 436.027 1380.97 435.44L1381.29 433H1392.37ZM1391.49 446.4C1393.28 446.373 1394.67 445.88 1395.65 444.92C1396.64 443.96 1397.13 442.72 1397.13 441.2C1397.13 439.68 1396.69 438.6 1395.81 437.96C1394.96 437.293 1393.61 436.96 1391.77 436.96C1391.05 436.96 1390.37 436.973 1389.73 437C1389.68 441.213 1389.65 444.36 1389.65 446.44L1391.49 446.4Z"
            fill="#786552"
    />
    <path
            d="M1318.48 560.36C1319.33 560.36 1320.29 560.507 1321.36 560.8C1322.43 561.093 1323.51 561.467 1324.6 561.92C1325.69 562.4 1326.39 562.68 1326.68 562.76C1327.93 563.16 1329.87 563.36 1332.48 563.36C1332.37 564.373 1332.2 565.253 1331.96 566C1331.75 566.747 1331.45 567.36 1331.08 567.84C1329.08 567.733 1327.31 567.387 1325.76 566.8C1325.33 566.64 1324.56 566.307 1323.44 565.8C1322.32 565.32 1321.33 564.947 1320.48 564.68C1319.63 564.44 1318.81 564.32 1318.04 564.32C1317.29 564.32 1316.23 564.48 1314.84 564.8C1313.48 565.147 1312.79 565.32 1312.76 565.32C1311.8 564.493 1311.32 563.573 1311.32 562.56C1312.95 561.813 1314.33 561.253 1315.48 560.88C1316.65 560.533 1317.65 560.36 1318.48 560.36ZM1320.2 555.24C1324.63 555.24 1326.84 551.84 1326.84 545.04C1326.84 538.24 1324.63 534.84 1320.2 534.84C1318.28 534.84 1316.6 535.133 1315.16 535.72C1313.93 538.28 1313.32 541.253 1313.32 544.64C1313.32 548 1313.83 550.613 1314.84 552.48C1315.85 554.32 1317.64 555.24 1320.2 555.24ZM1320.2 530.52C1324.65 530.52 1327.79 531.693 1329.6 534.04C1331.41 536.36 1332.32 539.92 1332.32 544.72C1332.32 547.733 1331.93 550.307 1331.16 552.44C1330.39 554.573 1329.08 556.28 1327.24 557.56C1325.4 558.84 1323.05 559.48 1320.2 559.48C1315.85 559.48 1312.69 558.267 1310.72 555.84C1308.77 553.413 1307.8 549.88 1307.8 545.24C1307.8 535.427 1311.93 530.52 1320.2 530.52ZM1355.34 547.04C1355.44 547.547 1355.5 548.107 1355.5 548.72C1355.5 549.307 1355.46 549.92 1355.38 550.56C1353.54 550.747 1352.03 550.84 1350.86 550.84L1345.06 550.6C1344.92 550.12 1344.86 549.573 1344.86 548.96C1344.86 548.32 1344.9 547.68 1344.98 547.04C1346.82 546.853 1348.32 546.76 1349.5 546.76L1355.34 547.04ZM1367.85 538.28C1367.43 536.44 1367.21 534.987 1367.21 533.92C1367.21 532.853 1367.25 531.88 1367.33 531H1390.57C1390.68 532.28 1390.73 533.147 1390.73 533.6C1390.73 534.747 1390.52 536.307 1390.09 538.28C1389.32 538.493 1388.05 538.6 1386.29 538.6L1385.37 534.56H1381.97C1381.95 535.573 1381.83 542.44 1381.61 555.16L1384.49 555.52C1384.49 556.747 1384.19 557.907 1383.57 559H1373.85L1373.49 556.8C1375.33 556.107 1376.49 555.72 1376.97 555.64C1376.97 555.533 1376.81 548.52 1376.49 534.6H1372.53L1371.65 538.52C1370.08 538.52 1368.81 538.44 1367.85 538.28Z"
            fill="#786552"
    />
    <path
            d="M1308.44 638.28C1308.01 636.44 1307.8 634.987 1307.8 633.92C1307.8 632.853 1307.84 631.88 1307.92 631H1331.16C1331.27 632.28 1331.32 633.147 1331.32 633.6C1331.32 634.747 1331.11 636.307 1330.68 638.28C1329.91 638.493 1328.64 638.6 1326.88 638.6L1325.96 634.56H1322.56C1322.53 635.573 1322.41 642.44 1322.2 655.16L1325.08 655.52C1325.08 656.747 1324.77 657.907 1324.16 659H1314.44L1314.08 656.8C1315.92 656.107 1317.08 655.72 1317.56 655.64C1317.56 655.533 1317.4 648.52 1317.08 634.6H1313.12L1312.24 638.52C1310.67 638.52 1309.4 638.44 1308.44 638.28ZM1354.63 647.04C1354.74 647.547 1354.79 648.107 1354.79 648.72C1354.79 649.307 1354.75 649.92 1354.67 650.56C1352.83 650.747 1351.33 650.84 1350.15 650.84L1344.35 650.6C1344.22 650.12 1344.15 649.573 1344.15 648.96C1344.15 648.32 1344.19 647.68 1344.27 647.04C1346.11 646.853 1347.62 646.76 1348.79 646.76L1354.63 647.04ZM1372.99 639.24L1371.75 639.28C1371 639.28 1370.23 639.12 1369.43 638.8C1368.95 636.72 1368.71 635.093 1368.71 633.92C1368.71 632.747 1368.76 631.773 1368.87 631H1387.23C1387.87 631.853 1388.3 632.907 1388.51 634.16L1374.43 655.16H1383.11L1383.99 650.88L1385.27 650.84C1386.02 650.84 1386.79 651 1387.59 651.32C1388.04 653.32 1388.27 654.893 1388.27 656.04C1388.27 657.187 1388.22 658.173 1388.11 659H1368.79C1368.12 658.147 1367.7 657.12 1367.51 655.92L1381.55 634.96H1373.95L1372.99 639.24Z"
            fill="#786552"
    />
    <path
            d="M999.374 36.32C1003.51 36.32 1005.57 34.84 1005.57 31.88C1005.57 29.72 1005.07 28.36 1004.05 27.8C1003.07 27.2133 1000.83 26.92 997.334 26.92L997.174 36.24C998.081 36.2933 998.814 36.32 999.374 36.32ZM999.134 23.64C1001.19 23.5867 1002.64 23.32 1003.49 22.84C1004.35 22.36 1004.77 21.36 1004.77 19.84C1004.77 18.2933 1004.28 17.2667 1003.29 16.76C1002.31 16.2533 1000.81 16 998.814 16H997.374C997.321 19.36 997.294 21.8933 997.294 23.6L999.134 23.64ZM999.174 40.04H989.294L988.934 37.84C990.321 37.28 991.441 36.8933 992.294 36.68C992.294 36.6 992.174 29.5467 991.934 15.52C991.507 15.4133 990.401 15.0667 988.614 14.48L988.934 12.04H1000.01C1003.19 12.04 1005.65 12.6533 1007.41 13.88C1009.17 15.1067 1010.05 16.88 1010.05 19.2C1010.05 20.32 1009.75 21.5333 1009.13 22.84C1008.55 24.1467 1007.87 24.92 1007.09 25.16C1008.27 25.8 1009.19 26.6933 1009.85 27.84C1010.52 28.9867 1010.85 30.3067 1010.85 31.8C1010.85 34.2533 1009.85 36.24 1007.85 37.76C1005.85 39.28 1002.96 40.04 999.174 40.04ZM1024.41 22.4C1023.45 22.4 1022.36 22.64 1021.13 23.12C1020.78 23.6533 1020.45 24.6 1020.13 25.96C1019.84 27.2933 1019.69 28.64 1019.69 30C1019.69 32.5067 1020.06 34.2933 1020.81 35.36C1021.56 36.4 1022.76 36.92 1024.41 36.92C1026.09 36.92 1027.3 36.4 1028.05 35.36C1028.8 34.2933 1029.17 32.48 1029.17 29.92C1029.17 27.3333 1028.78 25.44 1028.01 24.24C1027.26 23.0133 1026.06 22.4 1024.41 22.4ZM1024.41 19.2C1027.53 19.2 1030.04 20.16 1031.93 22.08C1033.85 23.9733 1034.81 26.6267 1034.81 30.04C1034.81 33.4267 1033.86 36.0133 1031.97 37.8C1030.08 39.5867 1027.56 40.48 1024.41 40.48C1021.26 40.48 1018.74 39.5867 1016.85 37.8C1014.98 36.0133 1014.05 33.4267 1014.05 30.04C1014.05 26.6267 1015 23.9733 1016.89 22.08C1018.78 20.16 1021.29 19.2 1024.41 19.2ZM1045.93 22.4C1044.97 22.4 1043.88 22.64 1042.65 23.12C1042.31 23.6533 1041.97 24.6 1041.65 25.96C1041.36 27.2933 1041.21 28.64 1041.21 30C1041.21 32.5067 1041.59 34.2933 1042.33 35.36C1043.08 36.4 1044.28 36.92 1045.93 36.92C1047.61 36.92 1048.83 36.4 1049.57 35.36C1050.32 34.2933 1050.69 32.48 1050.69 29.92C1050.69 27.3333 1050.31 25.44 1049.53 24.24C1048.79 23.0133 1047.59 22.4 1045.93 22.4ZM1045.93 19.2C1049.05 19.2 1051.56 20.16 1053.45 22.08C1055.37 23.9733 1056.33 26.6267 1056.33 30.04C1056.33 33.4267 1055.39 36.0133 1053.49 37.8C1051.6 39.5867 1049.08 40.48 1045.93 40.48C1042.79 40.48 1040.27 39.5867 1038.37 37.8C1036.51 36.0133 1035.57 33.4267 1035.57 30.04C1035.57 26.6267 1036.52 23.9733 1038.41 22.08C1040.31 20.16 1042.81 19.2 1045.93 19.2ZM1064.9 33.08L1064.86 36.16L1067.98 36.52C1067.98 37.6133 1067.67 38.7733 1067.06 40H1057.1L1056.74 37.8C1058.39 37.1867 1059.59 36.7867 1060.34 36.6L1059.58 14.4C1058.32 14.2667 1057.27 14.0667 1056.42 13.8C1056.42 12.8133 1056.51 11.8533 1056.7 10.92C1058.27 10.4933 1060.96 10.28 1064.78 10.28C1065.28 10.28 1065.6 10.2933 1065.74 10.32C1065.74 11.7067 1065.56 12.92 1065.22 13.96C1065.06 20.36 1064.98 25.1067 1064.98 28.2L1069.74 23.48L1067.26 23.16C1067.26 22.0667 1067.56 20.9067 1068.18 19.68H1078.14L1078.5 21.88C1076.84 22.4933 1075.64 22.8933 1074.9 23.08L1070.5 27.48L1076.1 36.16L1079.22 36.52C1079.22 37.6133 1078.91 38.7733 1078.3 40H1073.18L1067.26 30.72L1064.9 33.08ZM1095.25 20.92L1095.29 22.16C1095.29 24.24 1095.13 25.6 1094.81 26.24C1093.93 26.56 1092.7 26.72 1091.13 26.72L1089.85 22.68C1089.5 22.5467 1089.02 22.48 1088.41 22.48C1087.8 22.48 1087.29 22.6667 1086.89 23.04C1086.52 23.4133 1086.33 23.8533 1086.33 24.36C1086.33 24.8667 1086.53 25.3333 1086.93 25.76C1087.33 26.16 1087.74 26.48 1088.17 26.72C1088.6 26.96 1089.21 27.28 1090.01 27.68C1090.84 28.0533 1091.45 28.3467 1091.85 28.56C1092.28 28.7733 1092.81 29.0933 1093.45 29.52C1094.12 29.9467 1094.62 30.3467 1094.97 30.72C1095.82 31.7333 1096.25 32.84 1096.25 34.04C1096.25 36.0933 1095.46 37.68 1093.89 38.8C1092.34 39.92 1090.44 40.48 1088.17 40.48C1086.97 40.48 1085.65 40.2667 1084.21 39.84C1082.8 39.4133 1081.6 38.84 1080.61 38.12C1080.61 36.2 1080.8 34.4133 1081.17 32.76C1082.24 32.6267 1083.1 32.56 1083.77 32.56C1084.44 32.56 1084.89 32.5733 1085.13 32.6L1085.61 36.48C1086.28 36.72 1087.08 36.84 1088.01 36.84C1088.94 36.84 1089.68 36.6533 1090.21 36.28C1090.77 35.9067 1091.05 35.3867 1091.05 34.72C1091.05 34.0267 1090.74 33.4533 1090.13 33C1089.52 32.5467 1088.68 32.08 1087.61 31.6C1086.54 31.0933 1085.72 30.68 1085.13 30.36C1084.54 30.0133 1083.92 29.5733 1083.25 29.04C1081.89 28 1081.21 26.72 1081.21 25.2C1081.21 23.3067 1081.86 21.84 1083.17 20.8C1084.5 19.7333 1086.29 19.2 1088.53 19.2C1090.77 19.2 1093.01 19.7733 1095.25 20.92ZM1106.54 10.28L1107.5 10.32C1107.5 11.7067 1107.32 12.92 1106.98 13.96C1106.92 17 1106.9 19.28 1106.9 20.8C1107.75 20.4267 1108.72 20.0667 1109.82 19.72C1110.91 19.3733 1111.59 19.2 1111.86 19.2C1114.58 19.2 1116.52 19.8133 1117.7 21.04C1118.9 22.2667 1119.5 24.2 1119.5 26.84C1119.5 27.1067 1119.36 30.2133 1119.1 36.16L1122.22 36.56C1122.22 37.7067 1121.91 38.8533 1121.3 40H1111.34L1110.98 37.8C1112.76 37.08 1113.91 36.6933 1114.42 36.64C1114.36 33.76 1114.3 31.2133 1114.22 29C1114.14 26.76 1113.92 25.28 1113.58 24.56C1113.23 23.84 1112.67 23.48 1111.9 23.48C1111.15 23.48 1110.28 23.5733 1109.3 23.76C1108.34 23.92 1107.59 24.12 1107.06 24.36L1106.62 36.16L1109.74 36.52C1109.74 37.6133 1109.43 38.7733 1108.82 40H1098.86L1098.5 37.8C1100.15 37.1867 1101.35 36.7867 1102.1 36.6L1101.34 14.4C1100.08 14.2667 1099.03 14.0667 1098.18 13.8C1098.18 13.1333 1098.27 12.1733 1098.46 10.92C1100.03 10.4933 1102.72 10.28 1106.54 10.28ZM1133.94 36.56C1134.85 36.56 1136.69 35.9333 1139.46 34.68C1140.05 35.5333 1140.49 36.52 1140.78 37.64C1139.32 38.5467 1137.88 39.2533 1136.46 39.76C1135.08 40.24 1134.09 40.48 1133.5 40.48C1130.28 40.48 1127.82 39.5867 1126.14 37.8C1124.49 36.0133 1123.66 33.48 1123.66 30.2C1123.66 26.8933 1124.49 24.24 1126.14 22.24C1127.8 20.2133 1130.25 19.2 1133.5 19.2C1136.09 19.2 1138.06 20.04 1139.42 21.72C1140.78 23.4 1141.46 25.5867 1141.46 28.28C1141.46 28.84 1141.14 29.48 1140.5 30.2L1128.98 30C1129.04 32.1333 1129.44 33.76 1130.18 34.88C1130.93 36 1132.18 36.56 1133.94 36.56ZM1133.14 22.52C1132.13 22.52 1131.18 22.72 1130.3 23.12C1129.69 24.4 1129.3 25.5867 1129.14 26.68C1131.22 26.6 1133.58 26.5467 1136.22 26.52C1136.09 23.8533 1135.06 22.52 1133.14 22.52ZM1151.65 10.28C1152.16 10.28 1152.48 10.2933 1152.61 10.32C1152.61 11.7067 1152.44 12.92 1152.09 13.96C1152.06 15.6133 1152.02 17.9467 1151.97 20.96C1151.86 27.5733 1151.78 32.64 1151.73 36.16L1154.85 36.52C1154.85 37.6133 1154.54 38.7733 1153.93 40H1143.97L1143.61 37.8C1145.26 37.1867 1146.46 36.7867 1147.21 36.6L1146.45 14.4C1145.2 14.2667 1144.14 14.0667 1143.29 13.8C1143.29 12.8133 1143.38 11.8533 1143.57 10.92C1145.14 10.4933 1147.84 10.28 1151.65 10.28ZM1166.49 13.76L1165.77 13.72C1164.91 13.72 1164.31 14.1467 1163.97 15C1163.62 15.8267 1163.43 17.28 1163.41 19.36C1165.01 19.3867 1166.26 19.5067 1167.17 19.72C1167.22 19.72 1167.54 19.76 1168.13 19.84C1168.05 21.04 1167.73 22.1867 1167.17 23.28H1163.41C1163.3 28.9867 1163.23 33.2667 1163.21 36.12C1165.85 36.3067 1167.31 36.5467 1167.61 36.84C1167.61 37.72 1167.27 38.7733 1166.61 40H1155.49L1155.13 37.8C1157.21 37.0533 1158.41 36.6533 1158.73 36.6L1158.29 23.28H1155.49L1155.61 21C1156.3 20.52 1157.19 20.1733 1158.29 19.96V18.88C1158.29 15.7333 1158.9 13.44 1160.13 12C1161.25 10.6933 1162.87 10.04 1165.01 10.04C1167.17 10.04 1169.45 10.6267 1171.85 11.8L1171.89 12.44C1171.89 13.9067 1171.7 15.5467 1171.33 17.36C1170.53 17.5733 1169.79 17.68 1169.13 17.68C1168.46 17.68 1167.97 17.6533 1167.65 17.6L1166.49 13.76ZM1177.17 34.92C1177.41 35.88 1177.53 36.7067 1177.53 37.4C1177.53 38.0667 1177.49 38.8267 1177.41 39.68C1176.48 39.92 1175.61 40.04 1174.81 40.04C1174.01 40.04 1173.11 40 1172.09 39.92C1171.83 38.8533 1171.69 38.08 1171.69 37.6C1171.69 37.0933 1171.75 36.28 1171.85 35.16C1172.73 34.92 1173.57 34.8 1174.37 34.8C1175.2 34.8 1176.13 34.84 1177.17 34.92ZM1177.17 21.96C1177.41 22.92 1177.53 23.7467 1177.53 24.44C1177.53 25.1067 1177.49 25.8667 1177.41 26.72C1176.48 26.96 1175.61 27.08 1174.81 27.08C1174.01 27.08 1173.11 27.04 1172.09 26.96C1171.83 25.8933 1171.69 25.12 1171.69 24.64C1171.69 24.1333 1171.75 23.32 1171.85 22.2C1172.73 21.96 1173.57 21.84 1174.37 21.84C1175.2 21.84 1176.13 21.88 1177.17 21.96Z"
            fill="#2B2621"
    />
</svg>
