<svg width="118" height="78" viewBox="0 0 118 78" fill="none" xmlns="http://www.w3.org/2000/svg">
    <path d="M37.0295 7.71681C37.0295 9.60472 37.6953 11.1622 39.027 12.3894C40.3586 13.5693 42.3561 14.9145 45.0195 16.4248C46.9694 17.5103 48.5151 18.4543 49.6565 19.2566C50.7979 20.059 51.7729 21.0737 52.5814 22.3009C53.3899 23.528 53.7942 24.944 53.7942 26.5487C53.7942 29.4749 52.6052 31.7876 50.2272 33.4867C47.8968 35.1386 44.7579 35.9646 40.8105 35.9646C37.4337 35.9646 34.6991 35.3274 32.6065 34.0531C30.5614 32.7788 29.5389 31.056 29.5389 28.885C29.5389 27.469 30.0145 26.3599 30.9657 25.5575C31.9644 24.708 33.201 24.2832 34.6753 24.2832C35.8167 24.2832 36.9106 24.5664 37.9569 25.1327C36.4826 25.8879 35.7454 27.3746 35.7454 29.5929C35.7454 30.9145 36.221 32.0472 37.1722 32.9911C38.1709 33.8879 39.5026 34.3363 41.1672 34.3363C42.8793 34.3363 44.211 33.8643 45.1621 32.9204C46.1609 31.9764 46.6603 30.7965 46.6603 29.3805C46.6603 27.7286 46.042 26.3835 44.8055 25.3451C43.6165 24.2596 41.7854 23.0088 39.3123 21.5929C37.3624 20.5546 35.7454 19.587 34.4613 18.6903C33.2247 17.7935 32.1784 16.6844 31.3224 15.3628C30.4663 14.0413 30.0382 12.4838 30.0382 10.6903C30.0382 8 31.1797 5.82891 33.4625 4.17699C35.7929 2.47788 38.813 1.62832 42.5226 1.62832C45.7091 1.62832 48.3011 2.24189 50.2986 3.46903C52.2961 4.64897 53.2948 6.23009 53.2948 8.21239C53.2948 9.48672 52.8668 10.5015 52.0107 11.2566C51.1546 11.9646 49.9894 12.3186 48.5151 12.3186C47.4688 12.3186 46.3749 12.059 45.2335 11.5398C45.8518 11.0678 46.3274 10.4779 46.6603 9.76991C46.9932 9.06195 47.1596 8.33038 47.1596 7.57522C47.1596 6.39528 46.7316 5.40413 45.8755 4.60177C45.0195 3.75221 43.7591 3.32743 42.0946 3.32743C40.4775 3.32743 39.2172 3.75221 38.3136 4.60177C37.4575 5.45133 37.0295 6.48968 37.0295 7.71681Z"
          fill="#786552"/>
    <path d="M70.8939 33.6283C72.2731 33.6283 73.4858 33.3923 74.5322 32.9204C75.5785 32.4012 76.601 31.5516 77.5997 30.3717L78.4558 31.0088C77.3619 32.5664 75.9589 33.7935 74.2468 34.6903C72.5822 35.5398 70.7512 35.9646 68.7537 35.9646C66.5659 35.9646 64.5922 35.4454 62.8325 34.4071C61.1204 33.3687 59.7649 31.9528 58.7662 30.1593C57.7674 28.3186 57.2681 26.2419 57.2681 23.9292C57.2681 20.2478 58.3857 17.3215 60.621 15.1504C62.9039 12.9322 65.9239 11.823 69.6811 11.823C72.3444 11.823 74.5084 12.4602 76.173 13.7345C77.8851 14.9617 78.7412 16.5664 78.7412 18.5487C78.7412 20.8142 77.7662 22.6313 75.8163 24C73.9139 25.3215 71.2981 25.9823 67.9689 25.9823C66.6373 25.9823 65.4245 25.8879 64.3307 25.6991C64.5685 28.1534 65.2818 30.0885 66.4708 31.5044C67.6598 32.9204 69.1342 33.6283 70.8939 33.6283ZM68.8964 13.5221C67.422 13.5221 66.2568 14.4189 65.4007 16.2124C64.5922 17.9587 64.188 20.413 64.188 23.5752V24.708C64.7111 24.708 65.3532 24.6608 66.1141 24.5664C68.1116 24.3304 69.6335 23.6932 70.6798 22.6549C71.7737 21.5693 72.3206 20.1534 72.3206 18.4071C72.3206 16.9911 71.9877 15.8348 71.3219 14.9381C70.7036 13.9941 69.8951 13.5221 68.8964 13.5221Z"
          fill="#786552"/>
    <path d="M90.3499 31.292C90.3499 32.708 90.8018 33.4159 91.7054 33.4159C92.609 33.4159 93.4889 33.0619 94.3449 32.354L94.9156 33.0619C93.2511 34.997 91.1822 35.9646 88.7091 35.9646C87.0446 35.9646 85.8318 35.587 85.0708 34.8319C84.3099 34.0295 83.9294 32.7788 83.9294 31.0796V5.09734C83.9294 4.43658 83.6203 4.10619 83.002 4.10619H80.7192L80.5051 3.39823C81.4088 2.54867 82.574 1.88791 84.0008 1.41593C85.4751 0.896755 86.9257 0.637168 88.3524 0.637168C88.9707 0.637168 89.4463 0.778761 89.7792 1.06195C90.1597 1.29793 90.3499 1.65192 90.3499 2.12389V31.292Z"
          fill="#786552"/>
    <path d="M105.622 30.6549C105.622 31.7876 105.765 32.5664 106.05 32.9911C106.383 33.3687 107.12 33.6755 108.262 33.9115L109.189 34.1239L108.761 35.3274H97.6321L97.0614 34.6195L97.6321 33.9115C98.2028 33.1563 98.5833 32.354 98.7735 31.5044C99.0113 30.6077 99.1302 29.4041 99.1302 27.8938V15.3628H95.4919C95.4919 14.5605 95.5395 14.0413 95.6346 13.8053C95.7297 13.5693 96.0151 13.3805 96.4907 13.2389L99.1302 12.6018C99.1302 8.54277 100.01 5.42773 101.77 3.25664C103.577 1.08555 106.145 0 109.474 0C111.567 0 113.255 0.448377 114.539 1.34513C115.871 2.24189 116.537 3.42183 116.537 4.88496C116.537 6.15929 116.157 7.19764 115.396 8C114.635 8.75516 113.636 9.13274 112.399 9.13274C111.448 9.13274 110.568 8.94395 109.76 8.56637C110.616 7.85841 111.044 6.79646 111.044 5.38053C111.044 4.24779 110.83 3.35103 110.402 2.69026C109.974 2.0295 109.379 1.69911 108.618 1.69911C107.667 1.69911 106.93 2.19469 106.407 3.18584C105.884 4.17699 105.622 5.56932 105.622 7.36283V12.6018H110.83C110.83 13.9233 110.473 14.8437 109.76 15.3628H105.622V30.6549Z"
          fill="#786552"/>
    <path d="M7.49061 49.7522C7.49061 51.6401 8.15644 53.1976 9.48811 54.4248C10.8198 55.6047 12.8173 56.9498 15.4806 58.4602C17.4305 59.5457 18.9762 60.4897 20.1176 61.292C21.2591 62.0944 22.234 63.1091 23.0426 64.3363C23.8511 65.5634 24.2553 66.9793 24.2553 68.5841C24.2553 71.5103 23.0663 73.823 20.6884 75.5221C18.3579 77.174 15.219 78 11.2716 78C7.89487 78 5.1602 77.3628 3.06758 76.0885C1.02253 74.8142 0 73.0914 0 70.9203C0 69.5044 0.475594 68.3953 1.42678 67.5929C2.42553 66.7434 3.66208 66.3186 5.13642 66.3186C6.27785 66.3186 7.37171 66.6018 8.41802 67.1681C6.94368 67.9233 6.20651 69.41 6.20651 71.6283C6.20651 72.9498 6.6821 74.0826 7.63329 75.0265C8.63204 75.9233 9.9637 76.3717 11.6283 76.3717C13.3404 76.3717 14.6721 75.8997 15.6233 74.9557C16.622 74.0118 17.1214 72.8318 17.1214 71.4159C17.1214 69.764 16.5031 68.4189 15.2666 67.3805C14.0776 66.295 12.2466 65.0442 9.77347 63.6283C7.82353 62.59 6.20651 61.6224 4.9224 60.7257C3.68586 59.8289 2.63955 58.7198 1.78348 57.3982C0.927409 56.0767 0.499374 54.5192 0.499374 52.7257C0.499374 50.0354 1.6408 47.8643 3.92365 46.2124C6.25407 44.5133 9.27409 43.6637 12.9837 43.6637C16.1702 43.6637 18.7622 44.2773 20.7597 45.5044C22.7572 46.6844 23.7559 48.2655 23.7559 50.2478C23.7559 51.5221 23.3279 52.5369 22.4718 53.292C21.6158 54 20.4506 54.354 18.9762 54.354C17.9299 54.354 16.836 54.0944 15.6946 53.5752C16.3129 53.1032 16.7885 52.5133 17.1214 51.8053C17.4543 51.0973 17.6208 50.3658 17.6208 49.6106C17.6208 48.4307 17.1927 47.4395 16.3367 46.6372C15.4806 45.7876 14.2203 45.3628 12.5557 45.3628C10.9387 45.3628 9.67835 45.7876 8.77472 46.6372C7.91865 47.4867 7.49061 48.5251 7.49061 49.7522Z"
          fill="#786552"/>
    <path d="M52.0559 73.3274C52.0559 74.7434 52.5077 75.4513 53.4113 75.4513C54.3149 75.4513 55.1948 75.0973 56.0508 74.3894L56.6216 75.0973C54.8619 77.0324 52.793 78 50.4151 78C48.7029 78 47.4664 77.5752 46.7054 76.7257C45.992 75.8289 45.6353 74.3894 45.6353 72.4071V61.5752C45.6353 58.8378 44.7555 57.469 42.9958 57.469C41.2836 57.469 39.9044 58.6254 38.8581 60.938C37.8118 63.2507 37.2886 66.2714 37.2886 70C37.2886 71.4631 37.3838 72.6431 37.574 73.5398C37.8118 74.3894 38.1923 75.1917 38.7154 75.9469L39.2861 76.6549L38.7154 77.3628H28.3713L27.9432 76.1593L28.942 75.9469C29.7029 75.7581 30.2023 75.4749 30.4401 75.0973C30.6779 74.6726 30.7968 73.8702 30.7968 72.6903V47.4159C30.7968 47.0383 30.7017 46.7316 30.5114 46.4956C30.3687 46.2596 30.1547 46.1416 29.8694 46.1416H27.6579L27.3725 45.4336C28.2761 44.5841 29.4413 43.9233 30.8681 43.4513C32.3425 42.9322 33.793 42.6726 35.2198 42.6726C35.8381 42.6726 36.3375 42.8142 36.7179 43.0973C37.0984 43.3333 37.2886 43.6873 37.2886 44.1593V61.646C37.9545 59.4277 39.1197 57.587 40.7843 56.1239C42.4964 54.6136 44.3037 53.8584 46.206 53.8584C48.2511 53.8584 49.7254 54.5192 50.6291 55.8407C51.5803 57.1622 52.0559 59.2625 52.0559 62.1416V73.3274Z"
          fill="#786552"/>
    <path d="M72.3569 75.6637C73.7361 75.6637 74.9489 75.4277 75.9952 74.9557C77.0415 74.4366 78.064 73.587 79.0627 72.4071L79.9188 73.0442C78.8249 74.6018 77.4219 75.8289 75.7098 76.7257C74.0452 77.5752 72.2142 78 70.2167 78C68.029 78 66.0552 77.4808 64.2955 76.4425C62.5834 75.4041 61.228 73.9882 60.2292 72.1947C59.2305 70.354 58.7311 68.2773 58.7311 65.9646C58.7311 62.2832 59.8487 59.3569 62.084 57.1858C64.3669 54.9675 67.3869 53.8584 71.1441 53.8584C73.8074 53.8584 75.9714 54.4956 77.636 55.7699C79.3481 56.997 80.2042 58.6018 80.2042 60.5841C80.2042 62.8496 79.2292 64.6667 77.2793 66.0354C75.3769 67.3569 72.7611 68.0177 69.432 68.0177C68.1003 68.0177 66.8875 67.9233 65.7937 67.7345C66.0315 70.1888 66.7449 72.1239 67.9338 73.5398C69.1228 74.9557 70.5972 75.6637 72.3569 75.6637ZM70.3594 55.5575C68.885 55.5575 67.7198 56.4543 66.8637 58.2478C66.0552 59.9941 65.651 62.4484 65.651 65.6106V66.7434C66.1741 66.7434 66.8162 66.6962 67.5771 66.6018C69.5746 66.3658 71.0965 65.7286 72.1428 64.6903C73.2367 63.6047 73.7836 62.1888 73.7836 60.4425C73.7836 59.0265 73.4507 57.8702 72.7849 56.9734C72.1666 56.0295 71.3581 55.5575 70.3594 55.5575Z"
          fill="#786552"/>
    <path d="M91.813 73.3274C91.813 74.7434 92.2648 75.4513 93.1684 75.4513C94.072 75.4513 94.9519 75.0973 95.8079 74.3894L96.3787 75.0973C94.7141 77.0324 92.6452 78 90.1721 78C88.5076 78 87.2948 77.6224 86.5339 76.8672C85.7729 76.0649 85.3924 74.8142 85.3924 73.115V47.1327C85.3924 46.472 85.0833 46.1416 84.465 46.1416H82.1822L81.9681 45.4336C82.8718 44.5841 84.037 43.9233 85.4638 43.4513C86.9381 42.9322 88.3887 42.6726 89.8155 42.6726C90.4337 42.6726 90.9093 42.8142 91.2422 43.0973C91.6227 43.3333 91.813 43.6873 91.813 44.1593V73.3274Z"
          fill="#786552"/>
    <path d="M107.085 72.6903C107.085 73.823 107.228 74.6018 107.513 75.0265C107.846 75.4041 108.583 75.7109 109.725 75.9469L110.652 76.1593L110.224 77.3628H99.0951L98.5244 76.6549L99.0951 75.9469C99.6658 75.1917 100.046 74.3894 100.237 73.5398C100.474 72.6431 100.593 71.4395 100.593 69.9292V57.3982H96.9549C96.9549 56.5959 97.0025 56.0767 97.0976 55.8407C97.1927 55.6047 97.4781 55.4159 97.9537 55.2743L100.593 54.6372C100.593 50.5782 101.473 47.4631 103.233 45.292C105.04 43.1209 107.608 42.0354 110.937 42.0354C113.03 42.0354 114.718 42.4838 116.003 43.3805C117.334 44.2773 118 45.4572 118 46.9204C118 48.1947 117.62 49.233 116.859 50.0354C116.098 50.7906 115.099 51.1681 113.862 51.1681C112.911 51.1681 112.031 50.9793 111.223 50.6018C112.079 49.8938 112.507 48.8319 112.507 47.4159C112.507 46.2832 112.293 45.3864 111.865 44.7257C111.437 44.0649 110.842 43.7345 110.081 43.7345C109.13 43.7345 108.393 44.2301 107.87 45.2212C107.347 46.2124 107.085 47.6047 107.085 49.3982V54.6372H112.293C112.293 55.9587 111.936 56.8791 111.223 57.3982H107.085V72.6903Z"
          fill="#786552"/>
</svg>
