<?xml version="1.0" standalone="no"?>
<!DOCTYPE svg PUBLIC "-//W3C//DTD SVG 20010904//EN"
 "http://www.w3.org/TR/2001/REC-SVG-20010904/DTD/svg10.dtd">
<svg version="1.0" xmlns="http://www.w3.org/2000/svg"
 width="944.000000pt" height="944.000000pt" viewBox="0 0 944.000000 944.000000"
 preserveAspectRatio="xMidYMid meet">
<metadata>
Created by potrace 1.14, written by Peter Selinger 2001-2017
</metadata>
<g transform="translate(0.000000,944.000000) scale(0.100000,-0.100000)"
fill="#000000" stroke="none">
<path d="M8608 7830 c-192 -31 -354 -119 -466 -253 -52 -63 -124 -204 -151
-295 -28 -93 -48 -217 -57 -344 l-7 -108 -36 -9 c-20 -5 -74 -19 -121 -30 -46
-12 -93 -30 -103 -40 -12 -12 -21 -39 -24 -80 l-6 -61 147 0 147 0 -4 -612
c-3 -610 -3 -613 -27 -693 -16 -54 -41 -104 -77 -158 -53 -77 -53 -78 -36
-102 10 -14 27 -27 38 -30 11 -3 211 -4 445 -3 l425 3 17 35 c24 48 22 59 -9
65 -87 19 -191 57 -210 77 -12 13 -26 43 -32 68 -7 29 -11 284 -11 698 l0 652
165 0 c150 0 167 2 184 19 33 33 53 81 58 143 l6 58 -207 0 -208 0 4 303 c4
272 6 308 25 364 42 126 91 183 172 202 85 19 148 -14 196 -100 26 -48 30 -65
33 -161 5 -124 -11 -188 -61 -245 -25 -28 -28 -36 -16 -44 33 -21 100 -33 189
-33 117 0 178 23 243 93 62 66 82 125 82 241 0 87 -3 100 -30 148 -55 100
-167 178 -310 216 -71 20 -286 29 -367 16z"/>
<path d="M6940 7779 c-151 -20 -346 -93 -447 -169 -46 -36 -51 -42 -44 -67 l7
-28 111 -3 c97 -2 113 -5 129 -23 18 -20 19 -64 24 -1153 6 -1270 0 -1178 80
-1269 49 -55 115 -84 221 -98 187 -23 370 36 505 164 l66 62 -22 28 -22 27
-28 -20 c-77 -55 -200 -79 -241 -47 -45 35 -44 -10 -49 1294 l-5 1232 -29 30
c-48 50 -108 59 -256 40z"/>
<path d="M3215 7699 c-382 -43 -682 -237 -776 -504 -41 -118 -43 -295 -4 -425
41 -136 150 -286 285 -393 43 -34 138 -97 212 -140 395 -233 460 -273 533
-327 127 -95 193 -164 229 -239 29 -62 31 -73 31 -181 0 -107 -2 -119 -29
-173 -36 -71 -118 -150 -190 -183 -77 -35 -194 -50 -287 -37 -161 23 -261 89
-321 211 -32 64 -33 71 -32 182 0 95 4 125 22 171 24 61 90 144 123 154 28 9
16 21 -46 44 -177 66 -371 38 -489 -70 -65 -59 -96 -118 -106 -202 -30 -249
125 -452 422 -553 269 -91 676 -92 958 -2 101 32 222 95 297 155 171 137 253
306 253 528 0 179 -59 319 -192 460 -93 98 -181 160 -463 325 -523 305 -637
412 -676 634 -31 180 42 332 193 402 60 28 69 29 208 29 136 0 149 -2 201 -26
73 -35 128 -85 165 -151 27 -49 29 -61 29 -158 0 -93 -3 -112 -27 -162 -14
-31 -45 -77 -69 -102 -23 -26 -40 -49 -37 -51 3 -3 32 -15 64 -27 82 -30 243
-37 328 -14 163 44 244 161 234 335 -8 130 -68 234 -182 316 -207 147 -522
211 -861 174z"/>
<path d="M5376 6880 c-402 -63 -686 -326 -769 -710 -26 -122 -28 -358 -4 -467
58 -258 186 -453 387 -590 246 -167 618 -195 904 -69 123 55 286 183 351 276
l28 40 -24 20 c-33 27 -40 25 -84 -21 -60 -61 -148 -127 -209 -155 -154 -70
-363 -72 -497 -3 -95 48 -199 176 -252 309 -26 67 -57 199 -57 246 0 26 1 27
53 21 306 -35 581 -2 776 95 65 32 104 61 162 118 89 88 123 151 146 270 46
231 -72 438 -315 552 -114 54 -191 69 -372 73 -91 2 -192 0 -224 -5z m232
-146 c125 -62 201 -258 173 -446 -31 -197 -166 -340 -374 -392 -74 -19 -254
-39 -268 -30 -8 5 -9 50 -4 153 16 348 71 538 189 656 86 86 188 107 284 59z"/>
<path d="M8750 4469 c-422 -49 -664 -356 -698 -887 l-7 -116 -110 -26 c-162
-38 -175 -49 -175 -139 l0 -51 146 0 145 0 -4 -602 c-3 -537 -6 -611 -22 -673
-20 -80 -53 -150 -101 -216 -19 -26 -34 -51 -34 -56 0 -5 10 -19 23 -31 23
-22 25 -22 464 -22 l441 0 16 47 c9 25 15 47 13 48 -1 1 -36 10 -77 20 -97 23
-162 56 -181 92 -12 23 -14 138 -17 711 l-3 682 166 0 166 0 25 27 c27 29 54
109 54 160 l0 33 -206 0 -206 0 4 308 c3 290 5 311 26 371 47 131 113 191 209
191 118 0 193 -113 193 -291 0 -94 -22 -166 -66 -218 l-34 -39 43 -17 c24 -10
81 -20 133 -23 130 -7 190 13 266 88 48 48 60 68 79 129 77 257 -107 464 -446
501 -101 11 -119 11 -225 -1z"/>
<path d="M2729 4419 c-158 -13 -353 -79 -467 -159 -70 -49 -71 -50 -61 -80
l11 -30 99 0 c93 0 102 -2 124 -25 l25 -24 0 -1098 c0 -718 -4 -1111 -10
-1135 -14 -51 -56 -82 -137 -103 -37 -10 -70 -20 -72 -21 -2 -2 5 -23 14 -48
l18 -46 413 0 413 0 21 29 21 30 -37 48 c-46 60 -88 150 -105 228 -20 91 -17
451 5 595 51 342 163 564 319 636 50 22 69 26 127 22 77 -4 109 -21 147 -78
45 -66 46 -79 53 -685 7 -609 8 -619 55 -718 36 -76 111 -126 220 -146 189
-35 392 25 539 160 l67 62 -23 24 -24 24 -66 -35 c-119 -62 -191 -57 -232 14
-20 34 -21 54 -27 635 -6 657 -8 672 -68 801 -77 165 -220 243 -421 231 -160
-10 -285 -68 -422 -196 -44 -41 -99 -102 -123 -135 -39 -55 -107 -183 -131
-248 -5 -14 -10 262 -11 682 -2 533 -6 711 -15 728 -27 52 -104 71 -239 61z"/>
<path d="M7100 4419 c-184 -15 -398 -93 -508 -186 -28 -24 -33 -32 -27 -55 l7
-28 107 0 c77 0 113 -4 127 -14 19 -14 19 -40 24 -1138 5 -1117 5 -1123 27
-1186 39 -114 99 -167 223 -196 194 -46 410 13 561 152 l70 65 -23 23 -23 23
-67 -34 c-121 -61 -191 -56 -232 15 -21 35 -21 45 -23 1250 -2 668 -5 1225 -8
1237 -7 30 -55 62 -107 71 -24 4 -81 4 -128 1z"/>
<path d="M900 4340 c-241 -19 -436 -88 -599 -210 -183 -138 -271 -326 -257
-550 12 -204 83 -347 247 -506 92 -87 171 -141 429 -289 226 -130 351 -211
456 -296 91 -74 120 -108 158 -189 29 -60 31 -73 31 -170 0 -93 -3 -112 -27
-162 -77 -164 -236 -248 -446 -235 -187 11 -308 88 -368 235 -26 64 -32 191
-13 280 14 67 65 149 116 188 l42 32 -47 20 c-77 33 -122 42 -207 42 -136 -1
-219 -30 -305 -107 -122 -110 -144 -298 -54 -475 78 -154 276 -269 559 -325
112 -22 440 -24 555 -4 482 84 739 315 767 687 14 198 -56 374 -215 532 -79
79 -194 157 -462 312 -380 220 -541 345 -604 470 -92 185 -71 381 55 494 80
72 139 90 294 90 157 0 220 -19 298 -93 67 -62 97 -126 104 -215 9 -116 -27
-216 -109 -302 l-39 -41 55 -21 c177 -67 393 -42 495 59 105 104 118 303 30
441 -92 142 -301 255 -544 293 -121 18 -279 25 -395 15z"/>
<path d="M5494 3516 c-331 -54 -575 -231 -703 -508 -70 -153 -97 -308 -88
-503 11 -202 59 -356 162 -511 191 -286 532 -433 891 -383 210 29 383 116 535
269 102 103 107 113 69 140 l-31 22 -70 -67 c-87 -81 -156 -127 -240 -157 -55
-19 -84 -22 -209 -23 -145 0 -145 0 -214 34 -174 85 -290 281 -330 555 l-5 39
42 -7 c23 -4 105 -9 182 -13 335 -14 597 58 761 211 78 71 135 164 154 252 17
72 14 195 -5 261 -48 167 -227 316 -450 374 -103 26 -334 34 -451 15z m237
-147 c40 -20 95 -82 124 -139 31 -60 45 -131 45 -227 0 -299 -193 -470 -564
-499 l-89 -7 6 169 c13 361 89 585 230 686 69 49 172 56 248 17z"/>
</g>
</svg>
