<svg width="50" height="50" viewBox="0 0 50 50" fill="none" xmlns="http://www.w3.org/2000/svg">
    <path d="M47.6493 17.2731L33.1014 15.8444L26.8653 2.64437C26.4879 1.88058 25.7511 1.62 25.0143 1.62V26.9597L49.3206 18.6839C49.096 17.983 48.5029 17.4079 47.6493 17.2821V17.2731Z"
          fill="#CCCCCC"/>
    <path d="M25.0052 40.6809L38.0795 47.8155C38.8343 48.2109 39.6609 48.0851 40.254 47.6628L25.0052 26.9597V40.6899V40.6809Z"
          fill="#CCCCCC"/>
    <path d="M9.7655 47.6538C10.3586 48.0851 11.1852 48.2109 11.94 47.8066L25.0142 40.6719V26.9418L9.7655 47.6448V47.6538Z"
          fill="#A6A6A6"/>
    <path d="M49.3116 18.6659L25.0052 26.9418L40.254 47.6448C40.8471 47.2135 41.2155 46.4677 41.0717 45.632L38.0974 31.174L48.7904 20.7596C49.4014 20.1665 49.5362 19.3488 49.3116 18.6479V18.6659Z"
          fill="#A6A6A6"/>
    <path d="M23.1542 2.64437L16.9181 15.8444L2.37026 17.2731C1.5256 17.3989 0.932542 17.974 0.698914 18.6749L25.0052 26.9507V1.62C24.2684 1.62 23.5316 1.8716 23.1542 2.64437Z"
          fill="white"/>
    <path d="M25.0052 26.9508L0.698907 18.6749C0.474265 19.3758 0.609049 20.1845 1.22008 20.7866L11.9131 31.201L8.9388 45.659C8.79503 46.4947 9.16344 47.2405 9.7565 47.6718L25.0052 26.9687V26.9508Z"
          fill="#CCCCCC"/>
    <path d="M25.0053 1.62001C25.7421 1.62001 26.4789 1.87162 26.8563 2.64439L33.0924 15.8444L47.6403 17.2731C48.4849 17.3989 49.078 17.974 49.3026 18.6749C49.5273 19.3758 49.3925 20.1845 48.7814 20.7865L38.0885 31.201L41.0627 45.659C41.2065 46.4946 40.8381 47.2404 40.245 47.6718C39.9036 47.9234 39.4812 48.0671 39.032 48.0671C38.7175 48.0671 38.385 47.9863 38.0705 47.8245L24.9963 40.6899L11.9221 47.8245C11.6076 47.9952 11.2751 48.0671 10.9606 48.0671C10.5203 48.0671 10.098 47.9144 9.74754 47.6718C9.15448 47.2404 8.78607 46.4946 8.92984 45.659L11.9041 31.201L1.21111 20.7865C0.600086 20.1935 0.465299 19.3758 0.689941 18.6749C0.914584 17.974 1.50764 17.3989 2.36128 17.2731L16.9091 15.8444L23.1452 2.64439C23.5226 1.8806 24.2594 1.62001 24.9963 1.62001H25.0053ZM25.0053 1.02696C23.9 1.02696 23.0554 1.51218 22.6151 2.37481L16.5138 15.2783L2.30737 16.6711C1.27402 16.8238 0.447328 17.5067 0.132829 18.4772C-0.181671 19.4477 0.0699287 20.49 0.806757 21.1999L11.2661 31.3807L8.35475 45.5152C8.17504 46.5396 8.58838 47.537 9.40608 48.13C9.86435 48.4625 10.4035 48.6422 10.9696 48.6422C11.4009 48.6422 11.8142 48.5434 12.2096 48.3367L25.0053 41.3458L37.7919 48.3277C38.1873 48.5344 38.6096 48.6422 39.032 48.6422C39.5891 48.6422 40.1372 48.4625 40.5955 48.13C41.4222 47.537 41.8265 46.5306 41.6558 45.5332L38.7354 31.3807L49.1948 21.1999C49.9226 20.49 50.1832 19.4477 49.8687 18.4772C49.5542 17.5067 48.7275 16.8148 47.7211 16.6711L33.4788 15.2693L27.3865 2.36583C26.9552 1.48523 26.1015 1 24.9963 1L25.0053 1.02696Z"
          fill="#2D2D2D"/>
    <path d="M25.0052 1.62V40.6809" stroke="#2D2D2D" stroke-linecap="round" stroke-linejoin="round"/>
    <path d="M0.698914 18.6659L25.0052 26.9507" stroke="#2D2D2D" stroke-linecap="round" stroke-linejoin="round"/>
    <path d="M25.0053 26.9507L9.75653 47.6538" stroke="#2D2D2D" stroke-linecap="round" stroke-linejoin="round"/>
    <path d="M25.0052 26.9507L49.3116 18.6659" stroke="#2D2D2D" stroke-linecap="round" stroke-linejoin="round"/>
    <path d="M25.0052 26.9507L40.254 47.6538" stroke="#2D2D2D" stroke-linecap="round" stroke-linejoin="round"/>
</svg>
