<svg width="225" height="225" viewBox="0 0 225 225" fill="none" xmlns="http://www.w3.org/2000/svg">
    <path fill-rule="evenodd" clip-rule="evenodd"
          d="M70.3125 56.25C70.3125 45.0612 74.7572 34.3306 82.6689 26.4189C90.5806 18.5072 101.311 14.0625 112.5 14.0625C123.689 14.0625 134.419 18.5072 142.331 26.4189C150.243 34.3306 154.688 45.0612 154.688 56.25C154.688 67.4388 150.243 78.1694 142.331 86.0811C134.419 93.9928 123.689 98.4375 112.5 98.4375C101.311 98.4375 90.5806 93.9928 82.6689 86.0811C74.7572 78.1694 70.3125 67.4388 70.3125 56.25ZM35.1656 188.484C35.4818 168.183 43.7685 148.819 58.2371 134.574C72.7058 120.329 92.1957 112.345 112.5 112.345C132.804 112.345 152.294 120.329 166.763 134.574C181.232 148.819 189.518 168.183 189.834 188.484C189.859 189.851 189.484 191.195 188.757 192.353C188.029 193.51 186.98 194.43 185.738 195C162.761 205.535 137.776 210.972 112.5 210.938C86.3813 210.938 61.5656 205.238 39.2625 195C38.0202 194.43 36.971 193.51 36.2434 192.353C35.5158 191.195 35.1412 189.851 35.1656 188.484Z"
          fill="black"/>
    <path d="M114.536 157.832C116.264 155.656 117.832 153.128 119.24 150.248C120.648 147.368 121.352 144.552 121.352 141.8C121.352 138.984 120.456 136.712 118.664 134.984C116.872 133.256 114.664 132.392 112.04 132.392C109.416 132.392 107.144 132.776 105.224 133.544L103.016 143.432L97.448 143.24C96.552 140.744 95.976 137.192 95.72 132.584C100.648 128.744 106.408 126.824 113 126.824C124.008 126.824 129.512 132.2 129.512 142.952C129.512 145.64 128.776 148.424 127.304 151.304C125.832 154.184 124.2 156.68 122.408 158.792C117.16 164.936 114.056 170.056 113.096 174.152C112.84 175.112 112.712 177.512 112.712 181.352C111.56 181.544 110.184 181.64 108.584 181.64C107.624 179.4 106.888 176.744 106.376 173.672C106.76 171.048 107.784 168.296 109.448 165.416C111.112 162.472 112.808 159.944 114.536 157.832ZM115.688 196.808C114.024 197.192 112.392 197.384 110.792 197.384C109.256 197.384 107.72 197.288 106.184 197.096C105.8 195.304 105.608 193.512 105.608 191.72C105.608 189.864 105.672 188.488 105.8 187.592C107.208 187.272 108.648 187.112 110.12 187.112C111.656 187.112 113.384 187.176 115.304 187.304C115.688 188.968 115.88 190.76 115.88 192.68C115.88 194.6 115.816 195.976 115.688 196.808Z"
          fill="white"/>
</svg>
